<?xml version="1.0" encoding="UTF-8" standalone="no"?>
<svg
   xmlns:dc="http://purl.org/dc/elements/1.1/"
   xmlns:cc="http://creativecommons.org/ns#"
   xmlns:rdf="http://www.w3.org/1999/02/22-rdf-syntax-ns#"
   xmlns:svg="http://www.w3.org/2000/svg"
   xmlns="http://www.w3.org/2000/svg"
   xmlns:xlink="http://www.w3.org/1999/xlink"
   xmlns:sodipodi="http://sodipodi.sourceforge.net/DTD/sodipodi-0.dtd"
   xmlns:inkscape="http://www.inkscape.org/namespaces/inkscape"
   width="2880px"
   height="8850px"
   viewBox="0 0 2880 8850"
   version="1.1"
   id="svg213"
   sodipodi:docname="race-bg-2200m.svg"
   inkscape:version="1.0 (4035a4fb49, 2020-05-01)">
  <metadata
     id="metadata217">
    <rdf:RDF>
      <cc:Work
         rdf:about="">
        <dc:format>image/svg+xml</dc:format>
        <dc:type
           rdf:resource="http://purl.org/dc/dcmitype/StillImage" />
      </cc:Work>
    </rdf:RDF>
  </metadata>
  <sodipodi:namedview
     inkscape:document-rotation="0"
     pagecolor="#ffffff"
     bordercolor="#666666"
     borderopacity="1"
     objecttolerance="10"
     gridtolerance="10"
     guidetolerance="10"
     inkscape:pageopacity="0"
     inkscape:pageshadow="2"
     inkscape:window-width="1920"
     inkscape:window-height="1027"
     id="namedview215"
     showgrid="false"
     inkscape:zoom="1.5873446"
     inkscape:cx="2698.4611"
     inkscape:cy="8730.3642"
     inkscape:window-x="-8"
     inkscape:window-y="-8"
     inkscape:window-maximized="1"
     inkscape:current-layer="svg213" />
  <title
     id="title2">2200m</title>
  <defs
     id="defs11">
    <linearGradient
       x1="0%"
       y1="0%"
       x2="100%"
       y2="0%"
       id="linearGradient-1">
      <stop
         stop-color="#F0F8FF"
         stop-opacity="0.24"
         offset="0%"
         id="stop4" />
      <stop
         stop-color="#F9FCFF"
         stop-opacity="0.24"
         offset="91.6083916%"
         id="stop6" />
      <stop
         stop-color="#F0F8FF"
         stop-opacity="0"
         offset="100%"
         id="stop8" />
    </linearGradient>
    <linearGradient
       inkscape:collect="always"
       xlink:href="#linearGradient-1"
       id="linearGradient221"
       x1="0"
       y1="23275.282"
       x2="53.018865"
       y2="23275.282"
       gradientTransform="scale(53.018865,0.01886121)"
       gradientUnits="userSpaceOnUse" />
    <linearGradient
       inkscape:collect="always"
       xlink:href="#linearGradient-1"
       id="linearGradient223"
       x1="0"
       y1="44535.846"
       x2="53.018865"
       y2="44535.846"
       gradientTransform="scale(53.018865,0.01886121)"
       gradientUnits="userSpaceOnUse" />
    <linearGradient
       inkscape:collect="always"
       xlink:href="#linearGradient-1"
       id="linearGradient225"
       x1="0"
       y1="256611.3"
       x2="53.018865"
       y2="256611.3"
       gradientTransform="scale(53.018865,0.01886121)"
       gradientUnits="userSpaceOnUse" />
    <linearGradient
       inkscape:collect="always"
       xlink:href="#linearGradient-1"
       id="linearGradient227"
       x1="0"
       y1="235350.74"
       x2="53.018865"
       y2="235350.74"
       gradientTransform="scale(53.018865,0.01886121)"
       gradientUnits="userSpaceOnUse" />
    <linearGradient
       inkscape:collect="always"
       xlink:href="#linearGradient-1"
       id="linearGradient229"
       x1="0"
       y1="214196.21"
       x2="53.018865"
       y2="214196.21"
       gradientTransform="scale(53.018865,0.01886121)"
       gradientUnits="userSpaceOnUse" />
    <linearGradient
       inkscape:collect="always"
       xlink:href="#linearGradient-1"
       id="linearGradient231"
       x1="0"
       y1="447956.39"
       x2="53.018865"
       y2="447956.39"
       gradientTransform="scale(53.018865,0.01886121)"
       gradientUnits="userSpaceOnUse" />
    <linearGradient
       inkscape:collect="always"
       xlink:href="#linearGradient-1"
       id="linearGradient233"
       x1="0"
       y1="426695.82"
       x2="53.018865"
       y2="426695.82"
       gradientTransform="scale(53.018865,0.01886121)"
       gradientUnits="userSpaceOnUse" />
    <linearGradient
       inkscape:collect="always"
       xlink:href="#linearGradient-1"
       id="linearGradient235"
       x1="0"
       y1="405435.26"
       x2="53.018865"
       y2="405435.26"
       gradientTransform="scale(53.018865,0.01886121)"
       gradientUnits="userSpaceOnUse" />
    <linearGradient
       inkscape:collect="always"
       xlink:href="#linearGradient-1"
       id="linearGradient237"
       x1="0"
       y1="384174.69"
       x2="53.018865"
       y2="384174.69"
       gradientTransform="scale(53.018865,0.01886121)"
       gradientUnits="userSpaceOnUse" />
    <linearGradient
       inkscape:collect="always"
       xlink:href="#linearGradient-1"
       id="linearGradient239"
       x1="0"
       y1="362914.13"
       x2="53.018865"
       y2="362914.13"
       gradientTransform="scale(53.018865,0.01886121)"
       gradientUnits="userSpaceOnUse" />
    <linearGradient
       inkscape:collect="always"
       xlink:href="#linearGradient-1"
       id="linearGradient241"
       x1="0"
       y1="341653.56"
       x2="53.018865"
       y2="341653.56"
       gradientTransform="scale(53.018865,0.01886121)"
       gradientUnits="userSpaceOnUse" />
    <linearGradient
       inkscape:collect="always"
       xlink:href="#linearGradient-1"
       id="linearGradient243"
       x1="0"
       y1="320393"
       x2="53.018865"
       y2="320393"
       gradientTransform="scale(53.018865,0.01886121)"
       gradientUnits="userSpaceOnUse" />
    <linearGradient
       inkscape:collect="always"
       xlink:href="#linearGradient-1"
       id="linearGradient245"
       x1="0"
       y1="299132.43"
       x2="53.018865"
       y2="299132.43"
       gradientTransform="scale(53.018865,0.01886121)"
       gradientUnits="userSpaceOnUse" />
    <linearGradient
       inkscape:collect="always"
       xlink:href="#linearGradient-1"
       id="linearGradient247"
       x1="0"
       y1="277871.87"
       x2="53.018865"
       y2="277871.87"
       gradientTransform="scale(53.018865,0.01886121)"
       gradientUnits="userSpaceOnUse" />
    <linearGradient
       inkscape:collect="always"
       xlink:href="#linearGradient-1"
       id="linearGradient249"
       x1="0"
       y1="192935.65"
       x2="53.018865"
       y2="192935.65"
       gradientTransform="scale(53.018865,0.01886121)"
       gradientUnits="userSpaceOnUse" />
    <linearGradient
       inkscape:collect="always"
       xlink:href="#linearGradient-1"
       id="linearGradient251"
       x1="0"
       y1="108105.46"
       x2="53.018865"
       y2="108105.46"
       gradientTransform="scale(53.018865,0.01886121)"
       gradientUnits="userSpaceOnUse" />
    <linearGradient
       inkscape:collect="always"
       xlink:href="#linearGradient-1"
       id="linearGradient253"
       x1="0"
       y1="65690.373"
       x2="53.018865"
       y2="65690.373"
       gradientTransform="scale(53.018865,0.01886121)"
       gradientUnits="userSpaceOnUse" />
    <linearGradient
       inkscape:collect="always"
       xlink:href="#linearGradient-1"
       id="linearGradient255"
       x1="0"
       y1="86950.938"
       x2="53.018865"
       y2="86950.938"
       gradientTransform="scale(53.018865,0.01886121)"
       gradientUnits="userSpaceOnUse" />
    <linearGradient
       inkscape:collect="always"
       xlink:href="#linearGradient-1"
       id="linearGradient257"
       x1="0"
       y1="150520.56"
       x2="53.018865"
       y2="150520.56"
       gradientTransform="scale(53.018865,0.01886121)"
       gradientUnits="userSpaceOnUse" />
    <linearGradient
       inkscape:collect="always"
       xlink:href="#linearGradient-1"
       id="linearGradient259"
       x1="0"
       y1="171781.12"
       x2="53.018865"
       y2="171781.12"
       gradientTransform="scale(53.018865,0.01886121)"
       gradientUnits="userSpaceOnUse" />
    <linearGradient
       inkscape:collect="always"
       xlink:href="#linearGradient-1"
       id="linearGradient261"
       x1="0"
       y1="129366.03"
       x2="53.018865"
       y2="129366.03"
       gradientTransform="scale(53.018865,0.01886121)"
       gradientUnits="userSpaceOnUse" />
  </defs>
  <polygon
     style="stroke:none;stroke-width:1"
     points="2880,241 0,241 0,240 2880,240 "
     fill-rule="nonzero"
     fill="#f0f8ff"
     fill-opacity="0.12"
     id="Path" />
  <g
     style="stroke:none;stroke-width:1"
     fill-rule="nonzero"
     fill-opacity="0.12"
     fill="#f0f8ff"
     transform="translate(0,639)"
     id="Group">
    <g
       id="g16">
      <polygon
         id="polygon14"
         points="2880,1 0,1 0,0 2880,0 " />
    </g>
  </g>
  <g
     style="stroke:none;stroke-width:1"
     fill-rule="nonzero"
     fill-opacity="0.12"
     fill="#f0f8ff"
     transform="translate(0,1040)"
     id="g23">
    <g
       id="g21">
      <polygon
         id="polygon19"
         points="2880,1 0,1 0,0 2880,0 " />
    </g>
  </g>
  <g
     style="stroke:none;stroke-width:1"
     fill-rule="nonzero"
     fill-opacity="0.12"
     fill="#f0f8ff"
     transform="translate(0,4639)"
     id="g29">
    <g
       id="g27">
      <polygon
         id="polygon25"
         points="2880,1 0,1 0,0 2880,0 " />
    </g>
  </g>
  <g
     style="stroke:none;stroke-width:1"
     fill-rule="nonzero"
     fill-opacity="0.12"
     fill="#f0f8ff"
     transform="translate(0,3839)"
     id="g35">
    <g
       id="g33">
      <polygon
         id="polygon31"
         points="2880,1 0,1 0,0 2880,0 " />
    </g>
  </g>
  <g
     style="stroke:none;stroke-width:1"
     fill-rule="nonzero"
     fill-opacity="0.12"
     fill="#f0f8ff"
     transform="translate(0,4240)"
     id="g41">
    <g
       id="g39">
      <polygon
         id="polygon37"
         points="2880,1 0,1 0,0 2880,0 " />
    </g>
  </g>
  <g
     style="stroke:none;stroke-width:1"
     fill-rule="nonzero"
     fill-opacity="0.12"
     fill="#f0f8ff"
     transform="translate(0,8649)"
     id="g47">
    <g
       id="g45">
      <polygon
         id="polygon43"
         points="2880,1 0,1 0,0 2880,0 " />
    </g>
  </g>
  <g
     style="stroke:none;stroke-width:1"
     fill-rule="nonzero"
     fill-opacity="0.12"
     fill="#f0f8ff"
     transform="translate(0,8248)"
     id="g53">
    <g
       id="g51">
      <polygon
         id="polygon49"
         points="2880,1 0,1 0,0 2880,0 " />
    </g>
  </g>
  <g
     style="stroke:none;stroke-width:1"
     fill-rule="nonzero"
     fill-opacity="0.12"
     fill="#f0f8ff"
     transform="translate(0,7847)"
     id="g59">
    <g
       id="g57">
      <polygon
         id="polygon55"
         points="2880,1 0,1 0,0 2880,0 " />
    </g>
  </g>
  <g
     style="stroke:none;stroke-width:1"
     fill-rule="nonzero"
     fill-opacity="0.12"
     fill="#f0f8ff"
     transform="translate(0,7446)"
     id="g65">
    <g
       id="g63">
      <polygon
         id="polygon61"
         points="2880,1 0,1 0,0 2880,0 " />
    </g>
  </g>
  <g
     style="stroke:none;stroke-width:1"
     fill-rule="nonzero"
     fill-opacity="0.12"
     fill="#f0f8ff"
     transform="translate(0,7045)"
     id="g71">
    <g
       id="g69">
      <polygon
         id="polygon67"
         points="2880,1 0,1 0,0 2880,0 " />
    </g>
  </g>
  <g
     style="stroke:none;stroke-width:1"
     fill-rule="nonzero"
     fill-opacity="0.12"
     fill="#f0f8ff"
     transform="translate(0,6644)"
     id="g77">
    <g
       id="g75">
      <polygon
         id="polygon73"
         points="2880,1 0,1 0,0 2880,0 " />
    </g>
  </g>
  <g
     style="stroke:none;stroke-width:1"
     fill-rule="nonzero"
     fill-opacity="0.12"
     fill="#f0f8ff"
     transform="translate(0,6243)"
     id="g83">
    <g
       id="g81">
      <polygon
         id="polygon79"
         points="2880,1 0,1 0,0 2880,0 " />
    </g>
  </g>
  <g
     style="stroke:none;stroke-width:1"
     fill-rule="nonzero"
     fill-opacity="0.12"
     fill="#f0f8ff"
     transform="translate(0,5842)"
     id="g89">
    <g
       id="g87">
      <polygon
         id="polygon85"
         points="2880,1 0,1 0,0 2880,0 " />
    </g>
  </g>
  <g
     style="stroke:none;stroke-width:1"
     fill-rule="nonzero"
     fill-opacity="0.12"
     fill="#f0f8ff"
     transform="translate(0,5441)"
     id="g95">
    <g
       id="g93">
      <polygon
         id="polygon91"
         points="2880,1 0,1 0,0 2880,0 " />
    </g>
  </g>
  <g
     style="stroke:none;stroke-width:1"
     fill-rule="nonzero"
     fill-opacity="0.12"
     fill="#f0f8ff"
     transform="translate(0,5042)"
     id="g101">
    <g
       id="g99">
      <polygon
         id="polygon97"
         points="2880,1 0,1 0,0 2880,0 " />
    </g>
  </g>
  <g
     style="stroke:none;stroke-width:1"
     fill-rule="nonzero"
     fill-opacity="0.12"
     fill="#f0f8ff"
     transform="translate(0,1439)"
     id="g107">
    <g
       id="g105">
      <polygon
         id="polygon103"
         points="2880,1 0,1 0,0 2880,0 " />
    </g>
  </g>
  <g
     style="stroke:none;stroke-width:1"
     fill-rule="nonzero"
     fill-opacity="0.12"
     fill="#f0f8ff"
     transform="translate(0,1840)"
     id="g113">
    <g
       id="g111">
      <polygon
         id="polygon109"
         points="2880,1 0,1 0,0 2880,0 " />
    </g>
  </g>
  <g
     style="stroke:none;stroke-width:1"
     fill-rule="nonzero"
     fill-opacity="0.12"
     fill="#f0f8ff"
     transform="translate(0,3039)"
     id="g119">
    <g
       id="g117">
      <polygon
         id="polygon115"
         points="2880,1 0,1 0,0 2880,0 " />
    </g>
  </g>
  <g
     style="stroke:none;stroke-width:1"
     fill-rule="nonzero"
     fill-opacity="0.12"
     fill="#f0f8ff"
     transform="translate(0,3440)"
     id="g125">
    <g
       id="g123">
      <polygon
         id="polygon121"
         points="2880,1 0,1 0,0 2880,0 " />
    </g>
  </g>
  <g
     style="stroke:none;stroke-width:1"
     fill-rule="nonzero"
     fill-opacity="0.12"
     fill="#f0f8ff"
     transform="translate(0,2239)"
     id="g131">
    <g
       id="g129">
      <polygon
         id="polygon127"
         points="2880,1 0,1 0,0 2880,0 " />
    </g>
  </g>
  <g
     style="stroke:none;stroke-width:1"
     fill-rule="nonzero"
     fill-opacity="0.12"
     fill="#f0f8ff"
     transform="translate(0,2640)"
     id="g137">
    <g
       id="g135">
      <polygon
         id="polygon133"
         points="2880,1 0,1 0,0 2880,0 " />
    </g>
  </g>
  <polygon
     style="stroke:none;stroke-width:1"
     points="2880,8850 0,8850 0,8849 2880,8849 "
     fill-rule="nonzero"
     fill="#f0f8ff"
     fill-opacity="0.32"
     id="polygon139" />
  <path
     style="stroke:none;stroke-width:1"
     fill-rule="nonzero"
     fill="#f0f8ff"
     fill-opacity="0.32"
     id="START"
     d="m 2811.864,8807.08 c 0.8587,0 1.5867,-0.1307 2.184,-0.392 0.5973,-0.2613 1.043,-0.6113 1.337,-1.05 0.294,-0.4387 0.441,-0.9287 0.441,-1.47 0,-0.6347 -0.1657,-1.1387 -0.497,-1.512 -0.3313,-0.3733 -0.7303,-0.651 -1.197,-0.833 -0.4667,-0.182 -1.064,-0.357 -1.792,-0.525 -0.532,-0.1307 -0.952,-0.2473 -1.26,-0.35 -0.308,-0.1027 -0.5623,-0.2427 -0.763,-0.42 -0.2007,-0.1773 -0.301,-0.406 -0.301,-0.686 0,-0.4013 0.175,-0.7233 0.525,-0.966 0.35,-0.2427 0.8843,-0.364 1.603,-0.364 0.4387,0 0.8913,0.065 1.358,0.196 0.4667,0.1307 0.9147,0.322 1.344,0.574 v 0 l 0.574,-1.414 c -0.42,-0.28 -0.9193,-0.4947 -1.498,-0.644 -0.5787,-0.1493 -1.1667,-0.224 -1.764,-0.224 -0.8587,0 -1.5843,0.1307 -2.177,0.392 -0.5927,0.2613 -1.036,0.6137 -1.33,1.057 -0.294,0.4433 -0.441,0.9357 -0.441,1.477 0,0.644 0.1657,1.155 0.497,1.533 0.3313,0.378 0.728,0.6557 1.19,0.833 0.462,0.1773 1.0663,0.3547 1.813,0.532 0.532,0.1307 0.952,0.2473 1.26,0.35 0.308,0.1027 0.5623,0.245 0.763,0.427 0.2007,0.182 0.301,0.413 0.301,0.693 0,0.3827 -0.1797,0.6907 -0.539,0.924 -0.3593,0.2333 -0.903,0.35 -1.631,0.35 -0.588,0 -1.1737,-0.1003 -1.757,-0.301 -0.5833,-0.2007 -1.0757,-0.4597 -1.477,-0.777 v 0 l -0.63,1.414 c 0.4107,0.3547 0.9683,0.6393 1.673,0.854 0.7047,0.2147 1.435,0.322 2.191,0.322 z m 10.0193,-0.14 v -8.26 h 3.248 v -1.54 h -8.316 v 1.54 h 3.248 v 8.26 z m 5.2034,0 0.966,-2.268 h 4.9 l 0.98,2.268 h 1.904 l -4.424,-9.8 h -1.792 l -4.41,9.8 z m 5.264,-3.696 h -3.682 l 1.834,-4.284 z m 7.1353,3.696 v -2.856 l 2.3301,-9e-4 c 0.1103,0 0.1969,-0.01 0.2599,-0.013 v 0 l 2.002,2.87 h 1.96 l -2.254,-3.22 c 0.672,-0.2613 1.1877,-0.658 1.547,-1.19 0.3593,-0.532 0.539,-1.1667 0.539,-1.904 0,-0.7187 -0.168,-1.3393 -0.504,-1.862 -0.336,-0.5227 -0.819,-0.924 -1.449,-1.204 -0.63,-0.28 -1.3697,-0.42 -2.219,-0.42 v 0 h -4.032 v 9.8 z m 2.128,-4.354 h -2.128 v -3.906 h 2.128 c 0.7933,0 1.3953,0.168 1.806,0.504 0.4107,0.336 0.616,0.8167 0.616,1.442 0,0.6253 -0.2053,1.1083 -0.616,1.449 -0.4107,0.3407 -1.0127,0.511 -1.806,0.511 z m 10.5373,4.354 v -8.26 h 3.248 v -1.54 h -8.316 v 1.54 h 3.248 v 8.26 z" />
  <path
     style="stroke:none;stroke-width:1"
     fill-rule="nonzero"
     fill="#f0f8ff"
     fill-opacity="0.32"
     id="2100M"
     d="m 2820.4077,8454.4001 v -1.5401 h -4.62 l 2.618,-2.492 c 0.6346,-0.5972 1.064,-1.1293 1.288,-1.5959 0.224,-0.4668 0.336,-0.9661 0.336,-1.498 0,-0.868 -0.3174,-1.554 -0.952,-2.0581 -0.6347,-0.504 -1.484,-0.7559 -2.548,-0.7559 -0.8027,0 -1.5284,0.1422 -2.177,0.4269 -0.6487,0.2848 -1.1644,0.6837 -1.547,1.1971 v 0 l 1.274,0.9799 c 0.532,-0.6813 1.2973,-1.0221 2.296,-1.0221 0.5973,0 1.05,0.1214 1.358,0.364 0.308,0.2428 0.462,0.5927 0.462,1.05 0,0.308 -0.077,0.6183 -0.231,0.931 -0.154,0.3127 -0.4504,0.679 -0.889,1.099 v 0 l -3.892,3.696 v 1.2181 z m 5.0213,0 v -9.8 h -3.892 v 1.526 h 2.072 v 8.274 z m 6.6173,0.14 c 0.784,0 1.4864,-0.1983 2.107,-0.595 0.6207,-0.3967 1.1084,-0.9753 1.463,-1.736 0.3547,-0.7608 0.532,-1.6637 0.532,-2.7091 0,-1.0453 -0.1773,-1.9483 -0.532,-2.7091 -0.3546,-0.7607 -0.8423,-1.3392 -1.463,-1.736 -0.6206,-0.3967 -1.323,-0.595 -2.107,-0.595 -0.784,0 -1.484,0.1983 -2.1,0.595 -0.616,0.3967 -1.1013,0.9753 -1.456,1.736 -0.3546,0.7608 -0.532,1.6637 -0.532,2.7091 0,1.0453 0.1774,1.9483 0.532,2.7091 0.3547,0.7607 0.84,1.3392 1.456,1.736 0.616,0.3967 1.316,0.595 2.1,0.595 z m 0,-1.5821 c -0.6906,0 -1.239,-0.2893 -1.645,-0.868 -0.406,-0.5787 -0.609,-1.4419 -0.609,-2.59 0,-1.1479 0.203,-2.0113 0.609,-2.59 0.406,-0.5787 0.9544,-0.8681 1.645,-0.8681 0.7,0 1.253,0.2894 1.659,0.8681 0.406,0.5787 0.609,1.4419 0.609,2.59 0,1.1479 -0.203,2.0113 -0.609,2.59 -0.406,0.5787 -0.959,0.868 -1.659,0.868 z m 10.0054,1.5821 c 0.784,0 1.4863,-0.1983 2.107,-0.595 0.6207,-0.3967 1.1083,-0.9753 1.463,-1.736 0.3547,-0.7608 0.532,-1.6637 0.532,-2.7091 0,-1.0453 -0.1773,-1.9483 -0.532,-2.7091 -0.3547,-0.7607 -0.8423,-1.3392 -1.463,-1.736 -0.6207,-0.3967 -1.323,-0.595 -2.107,-0.595 -0.784,0 -1.484,0.1983 -2.1,0.595 -0.616,0.3967 -1.1013,0.9753 -1.456,1.736 -0.3547,0.7608 -0.532,1.6637 -0.532,2.7091 0,1.0453 0.1773,1.9483 0.532,2.7091 0.3547,0.7607 0.84,1.3392 1.456,1.736 0.616,0.3967 1.316,0.595 2.1,0.595 z m 0,-1.5821 c -0.6907,0 -1.239,-0.2893 -1.645,-0.868 -0.406,-0.5787 -0.609,-1.4419 -0.609,-2.59 0,-1.1479 0.203,-2.0113 0.609,-2.59 0.406,-0.5787 0.9543,-0.8681 1.645,-0.8681 0.7,0 1.253,0.2894 1.659,0.8681 0.406,0.5787 0.609,1.4419 0.609,2.59 0,1.1479 -0.203,2.0113 -0.609,2.59 -0.406,0.5787 -0.959,0.868 -1.659,0.868 z m 8.3533,1.442 v -6.4121 l 3.22,5.292 h 0.812 l 3.22,-5.376 0.014,6.496 h 1.722 l -0.014,-9.8 h -1.498 l -3.822,6.496 -3.892,-6.496 h -1.498 v 9.8 z" />
  <polygon
     style="fill:url(#linearGradient221);stroke:none;stroke-width:1"
     points="2811,440 0,440 0,439 2811,439 "
     transform="matrix(1,0,0,-1,0,879)"
     fill-rule="nonzero"
     fill="url(#linearGradient-1)"
     id="polygon143" />
  <path
     style="stroke:none;stroke-width:1"
     fill-rule="nonzero"
     fill="#f0f8ff"
     fill-opacity="0.32"
     id="2000M"
     d="m 2818.3846,8053.4 v -1.54 h -4.6199 l 2.618,-2.492 c 0.6347,-0.5973 1.0639,-1.1293 1.288,-1.596 0.224,-0.4667 0.336,-0.966 0.336,-1.498 0,-0.868 -0.3174,-1.554 -0.952,-2.058 -0.6347,-0.5039 -1.4841,-0.756 -2.548,-0.756 -0.8027,0 -1.5284,0.1424 -2.177,0.427 -0.6487,0.2848 -1.1644,0.6837 -1.547,1.197 v 0 l 1.2741,0.98 c 0.5319,-0.6813 1.2973,-1.022 2.2959,-1.022 0.5973,0 1.05,0.1213 1.358,0.3641 0.308,0.2426 0.4621,0.5926 0.4621,1.0499 0,0.3081 -0.077,0.6183 -0.2311,0.931 -0.154,0.3128 -0.4504,0.679 -0.889,1.0991 v 0 l -3.892,3.6959 v 1.218 z m 5.6793,0.14 c 0.784,0 1.4863,-0.1983 2.107,-0.595 0.6207,-0.3967 1.1083,-0.9753 1.463,-1.736 0.3547,-0.7607 0.5321,-1.6637 0.5321,-2.709 0,-1.0453 -0.1773,-1.9483 -0.5321,-2.7089 -0.3546,-0.7608 -0.8422,-1.3393 -1.463,-1.7361 -0.6207,-0.3966 -1.323,-0.5949 -2.107,-0.5949 -0.784,0 -1.484,0.1983 -2.1,0.5949 -0.616,0.3968 -1.1012,0.9753 -1.456,1.7361 -0.3547,0.7606 -0.532,1.6636 -0.532,2.7089 0,1.0453 0.1773,1.9483 0.532,2.709 0.3547,0.7607 0.84,1.3393 1.456,1.736 0.616,0.3967 1.316,0.595 2.1,0.595 z m 0,-1.582 c -0.6906,0 -1.239,-0.2893 -1.645,-0.868 -0.406,-0.5787 -0.6089,-1.442 -0.6089,-2.59 0,-1.148 0.2029,-2.0113 0.6089,-2.59 0.406,-0.5787 0.9544,-0.868 1.645,-0.868 0.7001,0 1.253,0.2893 1.659,0.868 0.406,0.5787 0.609,1.442 0.609,2.59 0,1.148 -0.203,2.0113 -0.609,2.59 -0.406,0.5787 -0.9589,0.868 -1.659,0.868 z m 10.0054,1.582 c 0.7839,0 1.4863,-0.1983 2.107,-0.595 0.6206,-0.3967 1.1084,-0.9753 1.4629,-1.736 0.3547,-0.7607 0.5321,-1.6637 0.5321,-2.709 0,-1.0453 -0.1773,-1.9483 -0.5321,-2.7089 -0.3545,-0.7608 -0.8422,-1.3393 -1.4629,-1.7361 -0.6207,-0.3966 -1.3231,-0.5949 -2.107,-0.5949 -0.784,0 -1.4841,0.1983 -2.1001,0.5949 -0.616,0.3968 -1.1012,0.9753 -1.456,1.7361 -0.3546,0.7606 -0.5319,1.6636 -0.5319,2.7089 0,1.0453 0.1773,1.9483 0.5319,2.709 0.3547,0.7607 0.84,1.3393 1.456,1.736 0.616,0.3967 1.3161,0.595 2.1001,0.595 z m 0,-1.582 c -0.6906,0 -1.239,-0.2893 -1.6451,-0.868 -0.4059,-0.5787 -0.6089,-1.442 -0.6089,-2.59 0,-1.148 0.203,-2.0113 0.6089,-2.59 0.4061,-0.5787 0.9545,-0.868 1.6451,-0.868 0.6999,0 1.253,0.2893 1.6589,0.868 0.4061,0.5787 0.6091,1.442 0.6091,2.59 0,1.148 -0.203,2.0113 -0.6091,2.59 -0.4059,0.5787 -0.9589,0.868 -1.6589,0.868 z m 10.0054,1.582 c 0.7839,0 1.4863,-0.1983 2.107,-0.595 0.6206,-0.3967 1.1082,-0.9753 1.4629,-1.736 0.3547,-0.7607 0.5321,-1.6637 0.5321,-2.709 0,-1.0453 -0.1773,-1.9483 -0.5321,-2.7089 -0.3547,-0.7608 -0.8423,-1.3393 -1.4629,-1.7361 -0.6207,-0.3966 -1.3231,-0.5949 -2.107,-0.5949 -0.784,0 -1.4841,0.1983 -2.1001,0.5949 -0.616,0.3968 -1.1013,0.9753 -1.456,1.7361 -0.3547,0.7606 -0.5319,1.6636 -0.5319,2.7089 0,1.0453 0.1772,1.9483 0.5319,2.709 0.3547,0.7607 0.84,1.3393 1.456,1.736 0.616,0.3967 1.3161,0.595 2.1001,0.595 z m 0,-1.582 c -0.6908,0 -1.239,-0.2893 -1.6451,-0.868 -0.4059,-0.5787 -0.6089,-1.442 -0.6089,-2.59 0,-1.148 0.203,-2.0113 0.6089,-2.59 0.4061,-0.5787 0.9543,-0.868 1.6451,-0.868 0.6999,0 1.253,0.2893 1.6589,0.868 0.4061,0.5787 0.6091,1.442 0.6091,2.59 0,1.148 -0.203,2.0113 -0.6091,2.59 -0.4059,0.5787 -0.9589,0.868 -1.6589,0.868 z m 8.3533,1.442 v -6.412 l 3.22,5.292 h 0.812 l 3.2199,-5.376 0.014,6.496 h 1.722 l -0.014,-9.8 h -1.4981 l -3.822,6.496 -3.892,-6.496 h -1.498 v 9.8 z" />
  <polygon
     style="fill:url(#linearGradient223);stroke:none;stroke-width:1"
     points="2811,841 0,841 0,840 2811,840 "
     transform="matrix(1,0,0,-1,0,1681)"
     fill-rule="nonzero"
     fill="url(#linearGradient-1)"
     id="polygon146" />
  <path
     style="stroke:none;stroke-width:1"
     fill-rule="nonzero"
     fill="#f0f8ff"
     fill-opacity="0.32"
     id="1000M"
     d="m 2816.0607,4045.3999 v -9.8 h -3.892 v 1.526 h 2.072 v 8.274 z m 6.6173,0.14 c 0.784,0 1.4863,-0.1983 2.107,-0.595 0.6207,-0.3967 1.1083,-0.9753 1.463,-1.736 0.3547,-0.7606 0.532,-1.6637 0.532,-2.7089 0,-1.0454 -0.1773,-1.9483 -0.532,-2.709 -0.3547,-0.7606 -0.8423,-1.3393 -1.463,-1.7359 -0.6207,-0.3967 -1.323,-0.595 -2.107,-0.595 -0.784,0 -1.484,0.1983 -2.1,0.595 -0.616,0.3966 -1.1013,0.9753 -1.456,1.7359 -0.3547,0.7607 -0.532,1.6637 -0.532,2.709 0,1.0453 0.1772,1.9483 0.532,2.7089 0.3547,0.7607 0.84,1.3393 1.456,1.736 0.616,0.3967 1.316,0.595 2.1,0.595 z m 0,-1.582 c -0.6907,0 -1.239,-0.2893 -1.645,-0.868 -0.406,-0.5787 -0.609,-1.442 -0.609,-2.59 0,-1.148 0.203,-2.0113 0.609,-2.59 0.406,-0.5787 0.9543,-0.868 1.645,-0.868 0.7,0 1.253,0.2893 1.659,0.868 0.406,0.5787 0.609,1.442 0.609,2.59 0,1.148 -0.203,2.0113 -0.609,2.59 -0.406,0.5787 -0.959,0.868 -1.659,0.868 z m 10.0053,1.582 c 0.784,0 1.4863,-0.1983 2.107,-0.595 0.6207,-0.3967 1.1084,-0.9753 1.463,-1.736 0.3547,-0.7606 0.532,-1.6637 0.532,-2.7089 0,-1.0454 -0.1773,-1.9483 -0.532,-2.709 -0.3546,-0.7606 -0.8423,-1.3393 -1.463,-1.7359 -0.6207,-0.3967 -1.323,-0.595 -2.107,-0.595 -0.784,0 -1.484,0.1983 -2.1,0.595 -0.616,0.3966 -1.1013,0.9753 -1.456,1.7359 -0.3547,0.7607 -0.5321,1.6637 -0.5321,2.709 0,1.0453 0.1774,1.9483 0.5321,2.7089 0.3546,0.7607 0.84,1.3393 1.456,1.736 0.616,0.3967 1.316,0.595 2.1,0.595 z m 0,-1.582 c -0.6906,0 -1.239,-0.2893 -1.645,-0.868 -0.406,-0.5787 -0.609,-1.442 -0.609,-2.59 0,-1.148 0.203,-2.0113 0.609,-2.59 0.406,-0.5787 0.9544,-0.868 1.645,-0.868 0.6999,0 1.253,0.2893 1.659,0.868 0.406,0.5787 0.609,1.442 0.609,2.59 0,1.148 -0.203,2.0113 -0.609,2.59 -0.406,0.5787 -0.959,0.868 -1.659,0.868 z m 10.0054,1.582 c 0.784,0 1.4863,-0.1983 2.107,-0.595 0.6206,-0.3967 1.1082,-0.9753 1.463,-1.736 0.3546,-0.7606 0.532,-1.6637 0.532,-2.7089 0,-1.0454 -0.1774,-1.9483 -0.532,-2.709 -0.3547,-0.7606 -0.8424,-1.3393 -1.463,-1.7359 -0.6207,-0.3967 -1.323,-0.595 -2.107,-0.595 -0.784,0 -1.484,0.1983 -2.1,0.595 -0.616,0.3966 -1.1014,0.9753 -1.456,1.7359 -0.3547,0.7607 -0.5321,1.6637 -0.5321,2.709 0,1.0453 0.1773,1.9483 0.5321,2.7089 0.3546,0.7607 0.84,1.3393 1.456,1.736 0.616,0.3967 1.316,0.595 2.1,0.595 z m 0,-1.582 c -0.6907,0 -1.239,-0.2893 -1.645,-0.868 -0.406,-0.5787 -0.609,-1.442 -0.609,-2.59 0,-1.148 0.203,-2.0113 0.609,-2.59 0.406,-0.5787 0.9543,-0.868 1.645,-0.868 0.6999,0 1.253,0.2893 1.659,0.868 0.406,0.5787 0.609,1.442 0.609,2.59 0,1.148 -0.203,2.0113 -0.609,2.59 -0.406,0.5787 -0.959,0.868 -1.659,0.868 z m 8.3533,1.442 v -6.412 l 3.22,5.292 h 0.812 l 3.2199,-5.376 0.014,6.496 h 1.7221 l -0.014,-9.8 h -1.498 l -3.8221,6.496 -3.8919,-6.496 h -1.498 v 9.8 z" />
  <polygon
     style="fill:url(#linearGradient225);stroke:none;stroke-width:1"
     points="2811,4841 0,4841 0,4840 2811,4840 "
     transform="matrix(1,0,0,-1,0,9681)"
     fill-rule="nonzero"
     fill="url(#linearGradient-1)"
     id="polygon149" />
  <path
     style="stroke:none;stroke-width:1"
     fill-rule="nonzero"
     fill="#f0f8ff"
     fill-opacity="0.32"
     id="1100M"
     d="m 2818.1047,4444.3999 v -9.8 h -3.892 v 1.526 h 2.072 v 8.274 z m 5.9172,0 v -9.8 h -3.8919 v 1.526 h 2.072 v 8.274 z m 6.6173,0.14 c 0.7841,0 1.4864,-0.1983 2.107,-0.595 0.6208,-0.3967 1.1085,-0.9753 1.4631,-1.736 0.3547,-0.7606 0.532,-1.6637 0.532,-2.7089 0,-1.0453 -0.1773,-1.9484 -0.532,-2.709 -0.3546,-0.7607 -0.8423,-1.3393 -1.4631,-1.736 -0.6206,-0.3966 -1.3229,-0.5949 -2.107,-0.5949 -0.7839,0 -1.4839,0.1983 -2.0999,0.5949 -0.616,0.3968 -1.1013,0.9753 -1.456,1.736 -0.3546,0.7606 -0.532,1.6637 -0.532,2.709 0,1.0452 0.1774,1.9483 0.532,2.7089 0.3547,0.7607 0.84,1.3393 1.456,1.736 0.616,0.3967 1.316,0.595 2.0999,0.595 z m 0,-1.582 c -0.6906,0 -1.2389,-0.2893 -1.6449,-0.868 -0.406,-0.5787 -0.609,-1.442 -0.609,-2.59 0,-1.148 0.203,-2.0113 0.609,-2.59 0.406,-0.5787 0.9543,-0.868 1.6449,-0.868 0.7001,0 1.2531,0.2893 1.6591,0.868 0.406,0.5787 0.6089,1.442 0.6089,2.59 0,1.148 -0.2029,2.0113 -0.6089,2.59 -0.406,0.5787 -0.959,0.868 -1.6591,0.868 z m 10.0054,1.582 c 0.7841,0 1.4864,-0.1983 2.107,-0.595 0.6206,-0.3967 1.1083,-0.9753 1.4631,-1.736 0.3546,-0.7606 0.532,-1.6637 0.532,-2.7089 0,-1.0453 -0.1774,-1.9484 -0.532,-2.709 -0.3547,-0.7607 -0.8425,-1.3393 -1.4631,-1.736 -0.6206,-0.3966 -1.3229,-0.5949 -2.107,-0.5949 -0.7839,0 -1.4839,0.1983 -2.0999,0.5949 -0.616,0.3968 -1.1015,0.9753 -1.456,1.736 -0.3547,0.7606 -0.532,1.6637 -0.532,2.709 0,1.0452 0.1772,1.9483 0.532,2.7089 0.3545,0.7607 0.84,1.3393 1.456,1.736 0.616,0.3967 1.316,0.595 2.0999,0.595 z m 0,-1.582 c -0.6906,0 -1.2389,-0.2893 -1.6449,-0.868 -0.406,-0.5787 -0.609,-1.442 -0.609,-2.59 0,-1.148 0.203,-2.0113 0.609,-2.59 0.406,-0.5787 0.9543,-0.868 1.6449,-0.868 0.7001,0 1.2531,0.2893 1.6591,0.868 0.406,0.5787 0.6089,1.442 0.6089,2.59 0,1.148 -0.2029,2.0113 -0.6089,2.59 -0.406,0.5787 -0.959,0.868 -1.6591,0.868 z m 8.3534,1.442 v -6.412 l 3.2199,5.292 h 0.812 l 3.22,-5.376 0.014,6.496 h 1.7219 l -0.014,-9.8 h -1.498 l -3.822,6.496 -3.892,-6.496 h -1.4981 v 9.8 z" />
  <polygon
     style="fill:url(#linearGradient227);stroke:none;stroke-width:1"
     points="2811,4440 0,4440 0,4439 2811,4439 "
     transform="matrix(1,0,0,-1,0,8879)"
     fill-rule="nonzero"
     fill="url(#linearGradient-1)"
     id="polygon152" />
  <path
     style="stroke:none;stroke-width:1"
     fill-rule="nonzero"
     fill="#f0f8ff"
     fill-opacity="0.32"
     id="1200M"
     d="m 2816.7187,4845.4 v -9.8 h -3.892 v 1.526 h 2.072 v 8.274 z m 9.6273,0 v -1.54 h -4.62 l 2.618,-2.492 c 0.6347,-0.5973 1.064,-1.1293 1.288,-1.596 0.224,-0.4667 0.3359,-0.966 0.3359,-1.498 0,-0.868 -0.3172,-1.554 -0.9519,-2.058 -0.6348,-0.5039 -1.484,-0.756 -2.5481,-0.756 -0.8027,0 -1.5283,0.1424 -2.1769,0.427 -0.6487,0.2847 -1.1644,0.6837 -1.5471,1.197 v 0 l 1.2741,0.98 c 0.532,-0.6813 1.2973,-1.022 2.2959,-1.022 0.5973,0 1.0501,0.1213 1.358,0.364 0.3081,0.2427 0.462,0.5927 0.462,1.05 0,0.308 -0.077,0.6183 -0.231,0.931 -0.154,0.3127 -0.4503,0.679 -0.8889,1.099 v 0 l -3.892,3.696 v 1.218 z m 5.6793,0.14 c 0.7839,0 1.4863,-0.1983 2.107,-0.595 0.6206,-0.3967 1.1084,-0.9753 1.4629,-1.736 0.3547,-0.7607 0.5321,-1.6637 0.5321,-2.709 0,-1.0453 -0.1773,-1.9483 -0.5321,-2.709 -0.3545,-0.7607 -0.8422,-1.3392 -1.4629,-1.736 -0.6207,-0.3967 -1.3231,-0.595 -2.107,-0.595 -0.784,0 -1.4841,0.1983 -2.1001,0.595 -0.616,0.3968 -1.1012,0.9753 -1.456,1.736 -0.3545,0.7607 -0.5319,1.6637 -0.5319,2.709 0,1.0453 0.1774,1.9483 0.5319,2.709 0.3547,0.7607 0.84,1.3393 1.456,1.736 0.616,0.3967 1.3161,0.595 2.1001,0.595 z m 0,-1.582 c -0.6906,0 -1.239,-0.2893 -1.6451,-0.868 -0.4059,-0.5787 -0.6089,-1.442 -0.6089,-2.59 0,-1.148 0.203,-2.0113 0.6089,-2.59 0.4061,-0.5787 0.9545,-0.868 1.6451,-0.868 0.7,0 1.253,0.2893 1.6589,0.868 0.4061,0.5787 0.6091,1.442 0.6091,2.59 0,1.148 -0.203,2.0113 -0.6091,2.59 -0.4059,0.5787 -0.9589,0.868 -1.6589,0.868 z m 10.0054,1.582 c 0.7839,0 1.4863,-0.1983 2.107,-0.595 0.6206,-0.3967 1.1083,-0.9753 1.4629,-1.736 0.3547,-0.7607 0.5321,-1.6637 0.5321,-2.709 0,-1.0453 -0.1774,-1.9483 -0.5321,-2.709 -0.3546,-0.7607 -0.8423,-1.3392 -1.4629,-1.736 -0.6207,-0.3967 -1.3231,-0.595 -2.107,-0.595 -0.784,0 -1.4841,0.1983 -2.1001,0.595 -0.616,0.3968 -1.1013,0.9753 -1.456,1.736 -0.3547,0.7607 -0.5319,1.6637 -0.5319,2.709 0,1.0453 0.1772,1.9483 0.5319,2.709 0.3547,0.7607 0.84,1.3393 1.456,1.736 0.616,0.3967 1.3161,0.595 2.1001,0.595 z m 0,-1.582 c -0.6907,0 -1.239,-0.2893 -1.6451,-0.868 -0.4059,-0.5787 -0.6089,-1.442 -0.6089,-2.59 0,-1.148 0.203,-2.0113 0.6089,-2.59 0.4061,-0.5787 0.9544,-0.868 1.6451,-0.868 0.7,0 1.253,0.2893 1.6589,0.868 0.4061,0.5787 0.6091,1.442 0.6091,2.59 0,1.148 -0.203,2.0113 -0.6091,2.59 -0.4059,0.5787 -0.9589,0.868 -1.6589,0.868 z m 8.3533,1.442 v -6.412 l 3.22,5.292 h 0.812 l 3.2199,-5.376 0.014,6.496 h 1.722 l -0.014,-9.8 h -1.4981 l -3.822,6.496 -3.892,-6.496 h -1.4979 v 9.8 z" />
  <polygon
     style="fill:url(#linearGradient229);stroke:none;stroke-width:1"
     points="2811,4041 0,4041 0,4040 2811,4040 "
     transform="matrix(1,0,0,-1,0,8081)"
     fill-rule="nonzero"
     fill="url(#linearGradient-1)"
     id="polygon155" />
  <path
     style="stroke:none;stroke-width:1"
     fill-rule="nonzero"
     fill="#f0f8ff"
     fill-opacity="0.32"
     id="100M"
     d="m 2821.2347,444.4 v -9.8 h -3.892 v 1.526 h 2.072 v 8.274 z m 6.6173,0.14 c 0.784,0 1.4864,-0.1983 2.107,-0.595 0.6207,-0.3967 1.1084,-0.9753 1.463,-1.736 0.3547,-0.7607 0.532,-1.6637 0.532,-2.709 0,-1.0453 -0.1773,-1.9483 -0.532,-2.709 -0.3546,-0.7607 -0.8423,-1.3393 -1.463,-1.736 -0.6206,-0.3967 -1.323,-0.595 -2.107,-0.595 -0.784,0 -1.484,0.1983 -2.1,0.595 -0.616,0.3967 -1.1013,0.9753 -1.456,1.736 -0.3546,0.7607 -0.532,1.6637 -0.532,2.709 0,1.0453 0.1774,1.9483 0.532,2.709 0.3547,0.7607 0.84,1.3393 1.456,1.736 0.616,0.3967 1.316,0.595 2.1,0.595 z m 0,-1.582 c -0.6906,0 -1.239,-0.2893 -1.645,-0.868 -0.406,-0.5787 -0.609,-1.442 -0.609,-2.59 0,-1.148 0.203,-2.0113 0.609,-2.59 0.406,-0.5787 0.9544,-0.868 1.645,-0.868 0.7,0 1.253,0.2893 1.659,0.868 0.406,0.5787 0.609,1.442 0.609,2.59 0,1.148 -0.203,2.0113 -0.609,2.59 -0.406,0.5787 -0.959,0.868 -1.659,0.868 z m 10.0054,1.582 c 0.784,0 1.4863,-0.1983 2.107,-0.595 0.6206,-0.3967 1.1083,-0.9753 1.463,-1.736 0.3546,-0.7607 0.532,-1.6637 0.532,-2.709 0,-1.0453 -0.1774,-1.9483 -0.532,-2.709 -0.3547,-0.7607 -0.8424,-1.3393 -1.463,-1.736 -0.6207,-0.3967 -1.323,-0.595 -2.107,-0.595 -0.784,0 -1.484,0.1983 -2.1,0.595 -0.616,0.3967 -1.1014,0.9753 -1.456,1.736 -0.3547,0.7607 -0.532,1.6637 -0.532,2.709 0,1.0453 0.1773,1.9483 0.532,2.709 0.3546,0.7607 0.84,1.3393 1.456,1.736 0.616,0.3967 1.316,0.595 2.1,0.595 z m 0,-1.582 c -0.6907,0 -1.239,-0.2893 -1.645,-0.868 -0.406,-0.5787 -0.609,-1.442 -0.609,-2.59 0,-1.148 0.203,-2.0113 0.609,-2.59 0.406,-0.5787 0.9543,-0.868 1.645,-0.868 0.7,0 1.253,0.2893 1.659,0.868 0.406,0.5787 0.609,1.442 0.609,2.59 0,1.148 -0.203,2.0113 -0.609,2.59 -0.406,0.5787 -0.959,0.868 -1.659,0.868 z m 8.3533,1.442 v -6.412 l 3.22,5.292 h 0.812 l 3.22,-5.376 0.014,6.496 h 1.722 l -0.014,-9.8 h -1.498 l -3.822,6.496 -3.892,-6.496 h -1.498 v 9.8 z" />
  <polygon
     style="fill:url(#linearGradient231);stroke:none;stroke-width:1"
     points="2811,8450 0,8450 0,8449 2811,8449 "
     transform="matrix(1,0,0,-1,0,16899)"
     fill-rule="nonzero"
     fill="url(#linearGradient-1)"
     id="polygon158" />
  <path
     style="stroke:none;stroke-width:1"
     fill-rule="nonzero"
     fill="#f0f8ff"
     fill-opacity="0.32"
     id="200M"
     d="m 2823.3874,845.4 v -1.54 h -4.62 l 2.618,-2.492 c 0.6347,-0.5973 1.064,-1.1293 1.288,-1.596 0.224,-0.4667 0.336,-0.966 0.336,-1.498 0,-0.868 -0.3173,-1.554 -0.952,-2.058 -0.6346,-0.504 -1.484,-0.756 -2.548,-0.756 -0.8026,0 -1.5283,0.1423 -2.177,0.427 -0.6486,0.2847 -1.1643,0.6837 -1.547,1.197 v 0 l 1.274,0.98 c 0.532,-0.6813 1.2974,-1.022 2.296,-1.022 0.5974,0 1.05,0.1213 1.358,0.364 0.308,0.2427 0.462,0.5927 0.462,1.05 0,0.308 -0.077,0.6183 -0.231,0.931 -0.154,0.3127 -0.4503,0.679 -0.889,1.099 v 0 l -3.892,3.696 v 1.218 z m 5.6794,0.14 c 0.784,0 1.4863,-0.1983 2.107,-0.595 0.6206,-0.3967 1.1083,-0.9753 1.463,-1.736 0.3546,-0.7607 0.532,-1.6637 0.532,-2.709 0,-1.0453 -0.1774,-1.9483 -0.532,-2.709 -0.3547,-0.7607 -0.8424,-1.3393 -1.463,-1.736 -0.6207,-0.3967 -1.323,-0.595 -2.107,-0.595 -0.784,0 -1.484,0.1983 -2.1,0.595 -0.616,0.3967 -1.1014,0.9753 -1.456,1.736 -0.3547,0.7607 -0.532,1.6637 -0.532,2.709 0,1.0453 0.1773,1.9483 0.532,2.709 0.3546,0.7607 0.84,1.3393 1.456,1.736 0.616,0.3967 1.316,0.595 2.1,0.595 z m 0,-1.582 c -0.6907,0 -1.239,-0.2893 -1.645,-0.868 -0.406,-0.5787 -0.609,-1.442 -0.609,-2.59 0,-1.148 0.203,-2.0113 0.609,-2.59 0.406,-0.5787 0.9543,-0.868 1.645,-0.868 0.7,0 1.253,0.2893 1.659,0.868 0.406,0.5787 0.609,1.442 0.609,2.59 0,1.148 -0.203,2.0113 -0.609,2.59 -0.406,0.5787 -0.959,0.868 -1.659,0.868 z m 10.0053,1.582 c 0.784,0 1.4863,-0.1983 2.107,-0.595 0.6207,-0.3967 1.1083,-0.9753 1.463,-1.736 0.3547,-0.7607 0.532,-1.6637 0.532,-2.709 0,-1.0453 -0.1773,-1.9483 -0.532,-2.709 -0.3547,-0.7607 -0.8423,-1.3393 -1.463,-1.736 -0.6207,-0.3967 -1.323,-0.595 -2.107,-0.595 -0.784,0 -1.484,0.1983 -2.1,0.595 -0.616,0.3967 -1.1013,0.9753 -1.456,1.736 -0.3547,0.7607 -0.532,1.6637 -0.532,2.709 0,1.0453 0.1773,1.9483 0.532,2.709 0.3547,0.7607 0.84,1.3393 1.456,1.736 0.616,0.3967 1.316,0.595 2.1,0.595 z m 0,-1.582 c -0.6907,0 -1.239,-0.2893 -1.645,-0.868 -0.406,-0.5787 -0.609,-1.442 -0.609,-2.59 0,-1.148 0.203,-2.0113 0.609,-2.59 0.406,-0.5787 0.9543,-0.868 1.645,-0.868 0.7,0 1.253,0.2893 1.659,0.868 0.406,0.5787 0.609,1.442 0.609,2.59 0,1.148 -0.203,2.0113 -0.609,2.59 -0.406,0.5787 -0.959,0.868 -1.659,0.868 z m 8.3533,1.442 v -6.412 l 3.22,5.292 h 0.812 l 3.22,-5.376 0.014,6.496 h 1.722 l -0.014,-9.8 h -1.498 l -3.822,6.496 -3.892,-6.496 h -1.498 v 9.8 z" />
  <polygon
     style="fill:url(#linearGradient233);stroke:none;stroke-width:1"
     points="2811,8049 0,8049 0,8048 2811,8048 "
     transform="matrix(1,0,0,-1,0,16097)"
     fill-rule="nonzero"
     fill="url(#linearGradient-1)"
     id="polygon161" />
  <path
     style="stroke:none;stroke-width:1"
     fill-rule="nonzero"
     fill="#f0f8ff"
     fill-opacity="0.32"
     id="300M"
     d="m 2819.4464,1244.54 c 0.84,0 1.5517,-0.1377 2.135,-0.413 0.5834,-0.2753 1.0197,-0.6463 1.309,-1.113 0.2894,-0.4667 0.434,-0.9847 0.434,-1.554 0,-0.756 -0.238,-1.386 -0.714,-1.89 -0.476,-0.504 -1.1666,-0.812 -2.072,-0.924 v 0 l 2.38,-2.828 v -1.218 h -6.678 v 1.526 h 4.452 l -2.226,2.646 v 1.246 h 0.896 c 0.7187,0 1.253,0.1283 1.603,0.385 0.35,0.2567 0.525,0.6137 0.525,1.071 0,0.4573 -0.1843,0.819 -0.553,1.085 -0.3686,0.266 -0.875,0.399 -1.519,0.399 -0.5413,0 -1.0663,-0.086 -1.575,-0.259 -0.5086,-0.1727 -0.9403,-0.4083 -1.295,-0.707 v 0 l -0.784,1.414 c 0.4574,0.3547 1.0104,0.6323 1.659,0.833 0.6487,0.2007 1.323,0.301 2.023,0.301 z m 9.7394,0 c 0.784,0 1.4863,-0.1983 2.107,-0.595 0.6206,-0.3967 1.1083,-0.9753 1.463,-1.736 0.3546,-0.7607 0.532,-1.6637 0.532,-2.709 0,-1.0453 -0.1774,-1.9483 -0.532,-2.709 -0.3547,-0.7607 -0.8424,-1.3393 -1.463,-1.736 -0.6207,-0.3967 -1.323,-0.595 -2.107,-0.595 -0.784,0 -1.484,0.1983 -2.1,0.595 -0.616,0.3967 -1.1014,0.9753 -1.456,1.736 -0.3547,0.7607 -0.532,1.6637 -0.532,2.709 0,1.0453 0.1773,1.9483 0.532,2.709 0.3546,0.7607 0.84,1.3393 1.456,1.736 0.616,0.3967 1.316,0.595 2.1,0.595 z m 0,-1.582 c -0.6907,0 -1.239,-0.2893 -1.645,-0.868 -0.406,-0.5787 -0.609,-1.442 -0.609,-2.59 0,-1.148 0.203,-2.0113 0.609,-2.59 0.406,-0.5787 0.9543,-0.868 1.645,-0.868 0.7,0 1.253,0.2893 1.659,0.868 0.406,0.5787 0.609,1.442 0.609,2.59 0,1.148 -0.203,2.0113 -0.609,2.59 -0.406,0.5787 -0.959,0.868 -1.659,0.868 z m 10.0053,1.582 c 0.784,0 1.4863,-0.1983 2.107,-0.595 0.6207,-0.3967 1.1083,-0.9753 1.463,-1.736 0.3547,-0.7607 0.532,-1.6637 0.532,-2.709 0,-1.0453 -0.1773,-1.9483 -0.532,-2.709 -0.3547,-0.7607 -0.8423,-1.3393 -1.463,-1.736 -0.6207,-0.3967 -1.323,-0.595 -2.107,-0.595 -0.784,0 -1.484,0.1983 -2.1,0.595 -0.616,0.3967 -1.1013,0.9753 -1.456,1.736 -0.3547,0.7607 -0.532,1.6637 -0.532,2.709 0,1.0453 0.1773,1.9483 0.532,2.709 0.3547,0.7607 0.84,1.3393 1.456,1.736 0.616,0.3967 1.316,0.595 2.1,0.595 z m 0,-1.582 c -0.6907,0 -1.239,-0.2893 -1.645,-0.868 -0.406,-0.5787 -0.609,-1.442 -0.609,-2.59 0,-1.148 0.203,-2.0113 0.609,-2.59 0.406,-0.5787 0.9543,-0.868 1.645,-0.868 0.7,0 1.253,0.2893 1.659,0.868 0.406,0.5787 0.609,1.442 0.609,2.59 0,1.148 -0.203,2.0113 -0.609,2.59 -0.406,0.5787 -0.959,0.868 -1.659,0.868 z m 8.3533,1.442 v -6.412 l 3.22,5.292 h 0.812 l 3.22,-5.376 0.014,6.496 h 1.722 l -0.014,-9.8 h -1.498 l -3.822,6.496 -3.892,-6.496 h -1.498 v 9.8 z" />
  <polygon
     style="fill:url(#linearGradient235);stroke:none;stroke-width:1"
     points="2811,7648 0,7648 0,7647 2811,7647 "
     transform="matrix(1,0,0,-1,0,15295)"
     fill-rule="nonzero"
     fill="url(#linearGradient-1)"
     id="polygon164" />
  <path
     style="stroke:none;stroke-width:1"
     fill-rule="nonzero"
     fill="#f0f8ff"
     fill-opacity="0.32"
     id="400M"
     d="m 2822.2254,1645.4 v -2.226 h 1.736 v -1.54 h -1.736 v -1.974 h -1.708 v 1.974 h -3.206 l 4.55,-6.034 h -1.946 l -4.83,6.314 v 1.26 h 5.376 v 2.226 z m 7.1774,0.14 c 0.784,0 1.4863,-0.1983 2.107,-0.595 0.6206,-0.3967 1.1083,-0.9753 1.463,-1.736 0.3546,-0.7607 0.532,-1.6637 0.532,-2.709 0,-1.0453 -0.1774,-1.9483 -0.532,-2.709 -0.3547,-0.7607 -0.8424,-1.3393 -1.463,-1.736 -0.6207,-0.3967 -1.323,-0.595 -2.107,-0.595 -0.784,0 -1.484,0.1983 -2.1,0.595 -0.616,0.3967 -1.1014,0.9753 -1.456,1.736 -0.3547,0.7607 -0.532,1.6637 -0.532,2.709 0,1.0453 0.1773,1.9483 0.532,2.709 0.3546,0.7607 0.84,1.3393 1.456,1.736 0.616,0.3967 1.316,0.595 2.1,0.595 z m 0,-1.582 c -0.6907,0 -1.239,-0.2893 -1.645,-0.868 -0.406,-0.5787 -0.609,-1.442 -0.609,-2.59 0,-1.148 0.203,-2.0113 0.609,-2.59 0.406,-0.5787 0.9543,-0.868 1.645,-0.868 0.7,0 1.253,0.2893 1.659,0.868 0.406,0.5787 0.609,1.442 0.609,2.59 0,1.148 -0.203,2.0113 -0.609,2.59 -0.406,0.5787 -0.959,0.868 -1.659,0.868 z m 10.0053,1.582 c 0.784,0 1.4863,-0.1983 2.107,-0.595 0.6207,-0.3967 1.1083,-0.9753 1.463,-1.736 0.3547,-0.7607 0.532,-1.6637 0.532,-2.709 0,-1.0453 -0.1773,-1.9483 -0.532,-2.709 -0.3547,-0.7607 -0.8423,-1.3393 -1.463,-1.736 -0.6207,-0.3967 -1.323,-0.595 -2.107,-0.595 -0.784,0 -1.484,0.1983 -2.1,0.595 -0.616,0.3967 -1.1013,0.9753 -1.456,1.736 -0.3547,0.7607 -0.532,1.6637 -0.532,2.709 0,1.0453 0.1773,1.9483 0.532,2.709 0.3547,0.7607 0.84,1.3393 1.456,1.736 0.616,0.3967 1.316,0.595 2.1,0.595 z m 0,-1.582 c -0.6907,0 -1.239,-0.2893 -1.645,-0.868 -0.406,-0.5787 -0.609,-1.442 -0.609,-2.59 0,-1.148 0.203,-2.0113 0.609,-2.59 0.406,-0.5787 0.9543,-0.868 1.645,-0.868 0.7,0 1.253,0.2893 1.659,0.868 0.406,0.5787 0.609,1.442 0.609,2.59 0,1.148 -0.203,2.0113 -0.609,2.59 -0.406,0.5787 -0.959,0.868 -1.659,0.868 z m 8.3533,1.442 v -6.412 l 3.22,5.292 h 0.812 l 3.22,-5.376 0.014,6.496 h 1.722 l -0.014,-9.8 h -1.498 l -3.822,6.496 -3.892,-6.496 h -1.498 v 9.8 z" />
  <polygon
     style="fill:url(#linearGradient237);stroke:none;stroke-width:1"
     points="2811,7247 0,7247 0,7246 2811,7246 "
     transform="matrix(1,0,0,-1,0,14493)"
     fill-rule="nonzero"
     fill="url(#linearGradient-1)"
     id="polygon167" />
  <path
     style="stroke:none;stroke-width:1"
     fill-rule="nonzero"
     fill="#f0f8ff"
     fill-opacity="0.32"
     id="500M"
     d="m 2819.4324,2044.54 c 0.8494,0 1.5634,-0.14 2.142,-0.42 0.5787,-0.28 1.0127,-0.658 1.302,-1.134 0.2894,-0.476 0.434,-1.008 0.434,-1.596 0,-0.924 -0.3313,-1.6543 -0.994,-2.191 -0.6626,-0.5367 -1.6846,-0.805 -3.066,-0.805 v 0 h -0.938 l 0.21,-2.268 h 4.214 v -1.526 h -5.754 l -0.504,5.334 h 2.366 c 0.9614,0 1.6404,0.1283 2.037,0.385 0.3967,0.2567 0.595,0.637 0.595,1.141 0,0.4667 -0.1843,0.833 -0.553,1.099 -0.3686,0.266 -0.875,0.399 -1.519,0.399 -0.5413,0 -1.0663,-0.086 -1.575,-0.259 -0.5086,-0.1727 -0.945,-0.4083 -1.309,-0.707 v 0 l -0.77,1.414 c 0.448,0.3547 0.9987,0.6323 1.652,0.833 0.6534,0.2007 1.33,0.301 2.03,0.301 z m 9.5994,0 c 0.784,0 1.4863,-0.1983 2.107,-0.595 0.6206,-0.3967 1.1083,-0.9753 1.463,-1.736 0.3546,-0.7607 0.532,-1.6637 0.532,-2.709 0,-1.0453 -0.1774,-1.9483 -0.532,-2.709 -0.3547,-0.7607 -0.8424,-1.3393 -1.463,-1.736 -0.6207,-0.3967 -1.323,-0.595 -2.107,-0.595 -0.784,0 -1.484,0.1983 -2.1,0.595 -0.616,0.3967 -1.1014,0.9753 -1.456,1.736 -0.3547,0.7607 -0.532,1.6637 -0.532,2.709 0,1.0453 0.1773,1.9483 0.532,2.709 0.3546,0.7607 0.84,1.3393 1.456,1.736 0.616,0.3967 1.316,0.595 2.1,0.595 z m 0,-1.582 c -0.6907,0 -1.239,-0.2893 -1.645,-0.868 -0.406,-0.5787 -0.609,-1.442 -0.609,-2.59 0,-1.148 0.203,-2.0113 0.609,-2.59 0.406,-0.5787 0.9543,-0.868 1.645,-0.868 0.7,0 1.253,0.2893 1.659,0.868 0.406,0.5787 0.609,1.442 0.609,2.59 0,1.148 -0.203,2.0113 -0.609,2.59 -0.406,0.5787 -0.959,0.868 -1.659,0.868 z m 10.0053,1.582 c 0.784,0 1.4863,-0.1983 2.107,-0.595 0.6207,-0.3967 1.1083,-0.9753 1.463,-1.736 0.3547,-0.7607 0.532,-1.6637 0.532,-2.709 0,-1.0453 -0.1773,-1.9483 -0.532,-2.709 -0.3547,-0.7607 -0.8423,-1.3393 -1.463,-1.736 -0.6207,-0.3967 -1.323,-0.595 -2.107,-0.595 -0.784,0 -1.484,0.1983 -2.1,0.595 -0.616,0.3967 -1.1013,0.9753 -1.456,1.736 -0.3547,0.7607 -0.532,1.6637 -0.532,2.709 0,1.0453 0.1773,1.9483 0.532,2.709 0.3547,0.7607 0.84,1.3393 1.456,1.736 0.616,0.3967 1.316,0.595 2.1,0.595 z m 0,-1.582 c -0.6907,0 -1.239,-0.2893 -1.645,-0.868 -0.406,-0.5787 -0.609,-1.442 -0.609,-2.59 0,-1.148 0.203,-2.0113 0.609,-2.59 0.406,-0.5787 0.9543,-0.868 1.645,-0.868 0.7,0 1.253,0.2893 1.659,0.868 0.406,0.5787 0.609,1.442 0.609,2.59 0,1.148 -0.203,2.0113 -0.609,2.59 -0.406,0.5787 -0.959,0.868 -1.659,0.868 z m 8.3533,1.442 v -6.412 l 3.22,5.292 h 0.812 l 3.22,-5.376 0.014,6.496 h 1.722 l -0.014,-9.8 h -1.498 l -3.822,6.496 -3.892,-6.496 h -1.498 v 9.8 z" />
  <polygon
     style="fill:url(#linearGradient239);stroke:none;stroke-width:1"
     points="2811,6846 0,6846 0,6845 2811,6845 "
     transform="matrix(1,0,0,-1,0,13691)"
     fill-rule="nonzero"
     fill="url(#linearGradient-1)"
     id="polygon170" />
  <path
     style="stroke:none;stroke-width:1"
     fill-rule="nonzero"
     fill="#f0f8ff"
     fill-opacity="0.32"
     id="600M"
     d="m 2819.6914,2445.54 c 0.672,0 1.2787,-0.1307 1.82,-0.392 0.5414,-0.2613 0.9707,-0.6323 1.288,-1.113 0.3174,-0.4807 0.476,-1.0383 0.476,-1.673 0,-0.5973 -0.1446,-1.1247 -0.434,-1.582 -0.2893,-0.4573 -0.6906,-0.8097 -1.204,-1.057 -0.5133,-0.2473 -1.092,-0.371 -1.736,-0.371 -0.56,0 -1.064,0.086 -1.512,0.259 -0.448,0.1727 -0.8166,0.427 -1.106,0.763 v 0 -0.014 c 0,-1.092 0.266,-1.9273 0.798,-2.506 0.532,-0.5787 1.2694,-0.868 2.212,-0.868 0.756,0 1.3767,0.1587 1.862,0.476 v 0 l 0.672,-1.372 c -0.3266,-0.2053 -0.7116,-0.3617 -1.155,-0.469 -0.4433,-0.1073 -0.917,-0.161 -1.421,-0.161 -0.952,0 -1.7896,0.203 -2.513,0.609 -0.7233,0.406 -1.2856,0.9987 -1.687,1.778 -0.4013,0.7793 -0.602,1.7197 -0.602,2.821 0,1.568 0.371,2.772 1.113,3.612 0.742,0.84 1.785,1.26 3.129,1.26 z m -0.098,-1.428 c -0.6346,0 -1.1316,-0.1563 -1.491,-0.469 -0.3593,-0.3127 -0.539,-0.707 -0.539,-1.183 0,-0.4853 0.1844,-0.8867 0.553,-1.204 0.3687,-0.3173 0.847,-0.476 1.435,-0.476 0.5974,0 1.0734,0.1493 1.428,0.448 0.3547,0.2987 0.532,0.7047 0.532,1.218 0,0.504 -0.1773,0.9077 -0.532,1.211 -0.3546,0.3033 -0.8166,0.455 -1.386,0.455 z m 9.3054,1.428 c 0.784,0 1.4863,-0.1983 2.107,-0.595 0.6206,-0.3967 1.1083,-0.9753 1.463,-1.736 0.3546,-0.7607 0.532,-1.6637 0.532,-2.709 0,-1.0453 -0.1774,-1.9483 -0.532,-2.709 -0.3547,-0.7607 -0.8424,-1.3393 -1.463,-1.736 -0.6207,-0.3967 -1.323,-0.595 -2.107,-0.595 -0.784,0 -1.484,0.1983 -2.1,0.595 -0.616,0.3967 -1.1014,0.9753 -1.456,1.736 -0.3547,0.7607 -0.532,1.6637 -0.532,2.709 0,1.0453 0.1773,1.9483 0.532,2.709 0.3546,0.7607 0.84,1.3393 1.456,1.736 0.616,0.3967 1.316,0.595 2.1,0.595 z m 0,-1.582 c -0.6907,0 -1.239,-0.2893 -1.645,-0.868 -0.406,-0.5787 -0.609,-1.442 -0.609,-2.59 0,-1.148 0.203,-2.0113 0.609,-2.59 0.406,-0.5787 0.9543,-0.868 1.645,-0.868 0.7,0 1.253,0.2893 1.659,0.868 0.406,0.5787 0.609,1.442 0.609,2.59 0,1.148 -0.203,2.0113 -0.609,2.59 -0.406,0.5787 -0.959,0.868 -1.659,0.868 z m 10.0053,1.582 c 0.784,0 1.4863,-0.1983 2.107,-0.595 0.6207,-0.3967 1.1083,-0.9753 1.463,-1.736 0.3547,-0.7607 0.532,-1.6637 0.532,-2.709 0,-1.0453 -0.1773,-1.9483 -0.532,-2.709 -0.3547,-0.7607 -0.8423,-1.3393 -1.463,-1.736 -0.6207,-0.3967 -1.323,-0.595 -2.107,-0.595 -0.784,0 -1.484,0.1983 -2.1,0.595 -0.616,0.3967 -1.1013,0.9753 -1.456,1.736 -0.3547,0.7607 -0.532,1.6637 -0.532,2.709 0,1.0453 0.1773,1.9483 0.532,2.709 0.3547,0.7607 0.84,1.3393 1.456,1.736 0.616,0.3967 1.316,0.595 2.1,0.595 z m 0,-1.582 c -0.6907,0 -1.239,-0.2893 -1.645,-0.868 -0.406,-0.5787 -0.609,-1.442 -0.609,-2.59 0,-1.148 0.203,-2.0113 0.609,-2.59 0.406,-0.5787 0.9543,-0.868 1.645,-0.868 0.7,0 1.253,0.2893 1.659,0.868 0.406,0.5787 0.609,1.442 0.609,2.59 0,1.148 -0.203,2.0113 -0.609,2.59 -0.406,0.5787 -0.959,0.868 -1.659,0.868 z m 8.3533,1.442 v -6.412 l 3.22,5.292 h 0.812 l 3.22,-5.376 0.014,6.496 h 1.722 l -0.014,-9.8 h -1.498 l -3.822,6.496 -3.892,-6.496 h -1.498 v 9.8 z" />
  <polygon
     style="fill:url(#linearGradient241);stroke:none;stroke-width:1"
     points="2811,6445 0,6445 0,6444 2811,6444 "
     transform="matrix(1,0,0,-1,0,12889)"
     fill-rule="nonzero"
     fill="url(#linearGradient-1)"
     id="polygon173" />
  <path
     style="stroke:none;stroke-width:1"
     fill-rule="nonzero"
     fill="#f0f8ff"
     fill-opacity="0.32"
     id="700M"
     d="m 2819.5304,2844.4 3.808,-8.582 v -1.218 h -7.616 v 3.206 h 1.694 v -1.666 h 3.85 l -3.682,8.26 z m 9.3194,0.14 c 0.784,0 1.4863,-0.1983 2.107,-0.595 0.6206,-0.3967 1.1083,-0.9753 1.463,-1.736 0.3546,-0.7607 0.532,-1.6637 0.532,-2.709 0,-1.0453 -0.1774,-1.9483 -0.532,-2.709 -0.3547,-0.7607 -0.8424,-1.3393 -1.463,-1.736 -0.6207,-0.3967 -1.323,-0.595 -2.107,-0.595 -0.784,0 -1.484,0.1983 -2.1,0.595 -0.616,0.3967 -1.1014,0.9753 -1.456,1.736 -0.3547,0.7607 -0.532,1.6637 -0.532,2.709 0,1.0453 0.1773,1.9483 0.532,2.709 0.3546,0.7607 0.84,1.3393 1.456,1.736 0.616,0.3967 1.316,0.595 2.1,0.595 z m 0,-1.582 c -0.6907,0 -1.239,-0.2893 -1.645,-0.868 -0.406,-0.5787 -0.609,-1.442 -0.609,-2.59 0,-1.148 0.203,-2.0113 0.609,-2.59 0.406,-0.5787 0.9543,-0.868 1.645,-0.868 0.7,0 1.253,0.2893 1.659,0.868 0.406,0.5787 0.609,1.442 0.609,2.59 0,1.148 -0.203,2.0113 -0.609,2.59 -0.406,0.5787 -0.959,0.868 -1.659,0.868 z m 10.0053,1.582 c 0.784,0 1.4863,-0.1983 2.107,-0.595 0.6207,-0.3967 1.1083,-0.9753 1.463,-1.736 0.3547,-0.7607 0.532,-1.6637 0.532,-2.709 0,-1.0453 -0.1773,-1.9483 -0.532,-2.709 -0.3547,-0.7607 -0.8423,-1.3393 -1.463,-1.736 -0.6207,-0.3967 -1.323,-0.595 -2.107,-0.595 -0.784,0 -1.484,0.1983 -2.1,0.595 -0.616,0.3967 -1.1013,0.9753 -1.456,1.736 -0.3547,0.7607 -0.532,1.6637 -0.532,2.709 0,1.0453 0.1773,1.9483 0.532,2.709 0.3547,0.7607 0.84,1.3393 1.456,1.736 0.616,0.3967 1.316,0.595 2.1,0.595 z m 0,-1.582 c -0.6907,0 -1.239,-0.2893 -1.645,-0.868 -0.406,-0.5787 -0.609,-1.442 -0.609,-2.59 0,-1.148 0.203,-2.0113 0.609,-2.59 0.406,-0.5787 0.9543,-0.868 1.645,-0.868 0.7,0 1.253,0.2893 1.659,0.868 0.406,0.5787 0.609,1.442 0.609,2.59 0,1.148 -0.203,2.0113 -0.609,2.59 -0.406,0.5787 -0.959,0.868 -1.659,0.868 z m 8.3533,1.442 v -6.412 l 3.22,5.292 h 0.812 l 3.22,-5.376 0.014,6.496 h 1.722 l -0.014,-9.8 h -1.498 l -3.822,6.496 -3.892,-6.496 h -1.498 v 9.8 z" />
  <polygon
     style="fill:url(#linearGradient243);stroke:none;stroke-width:1"
     points="2811,6044 0,6044 0,6043 2811,6043 "
     transform="matrix(1,0,0,-1,0,12087)"
     fill-rule="nonzero"
     fill="url(#linearGradient-1)"
     id="polygon176" />
  <path
     style="stroke:none;stroke-width:1"
     fill-rule="nonzero"
     fill="#f0f8ff"
     fill-opacity="0.32"
     id="800M"
     d="m 2819.2644,3245.54 c 0.8027,0 1.5074,-0.119 2.114,-0.357 0.6067,-0.238 1.0757,-0.581 1.407,-1.029 0.3314,-0.448 0.497,-0.9707 0.497,-1.568 0,-0.532 -0.1376,-0.9963 -0.413,-1.393 -0.2753,-0.3967 -0.6696,-0.7117 -1.183,-0.945 0.4014,-0.224 0.7094,-0.5087 0.924,-0.854 0.2147,-0.3453 0.322,-0.7467 0.322,-1.204 0,-0.5507 -0.154,-1.0313 -0.462,-1.442 -0.308,-0.4107 -0.7373,-0.728 -1.288,-0.952 -0.5506,-0.224 -1.19,-0.336 -1.918,-0.336 -0.7186,0 -1.3533,0.112 -1.904,0.336 -0.5506,0.224 -0.9776,0.5413 -1.281,0.952 -0.3033,0.4107 -0.455,0.8913 -0.455,1.442 0,0.4573 0.105,0.861 0.315,1.211 0.21,0.35 0.511,0.6323 0.903,0.847 -0.504,0.2333 -0.8913,0.5483 -1.162,0.945 -0.2706,0.3967 -0.406,0.861 -0.406,1.393 0,0.5973 0.1634,1.12 0.49,1.568 0.3267,0.448 0.791,0.791 1.393,1.029 0.602,0.238 1.3044,0.357 2.107,0.357 z m 0,-5.894 c -0.5693,0 -1.0196,-0.1237 -1.351,-0.371 -0.3313,-0.2473 -0.497,-0.581 -0.497,-1.001 0,-0.4387 0.1657,-0.7793 0.497,-1.022 0.3314,-0.2427 0.7817,-0.364 1.351,-0.364 0.5694,0 1.0244,0.1213 1.365,0.364 0.3407,0.2427 0.511,0.5833 0.511,1.022 0,0.42 -0.168,0.7537 -0.504,1.001 -0.336,0.2473 -0.7933,0.371 -1.372,0.371 z m 0,4.466 c -0.672,0 -1.1993,-0.14 -1.582,-0.42 -0.3826,-0.28 -0.574,-0.6673 -0.574,-1.162 0,-0.4853 0.1914,-0.868 0.574,-1.148 0.3827,-0.28 0.91,-0.42 1.582,-0.42 0.672,0 1.204,0.14 1.596,0.42 0.392,0.28 0.588,0.6627 0.588,1.148 0,0.4947 -0.196,0.882 -0.588,1.162 -0.392,0.28 -0.924,0.42 -1.596,0.42 z m 9.8654,1.428 c 0.784,0 1.4863,-0.1983 2.107,-0.595 0.6206,-0.3967 1.1083,-0.9753 1.463,-1.736 0.3546,-0.7607 0.532,-1.6637 0.532,-2.709 0,-1.0453 -0.1774,-1.9483 -0.532,-2.709 -0.3547,-0.7607 -0.8424,-1.3393 -1.463,-1.736 -0.6207,-0.3967 -1.323,-0.595 -2.107,-0.595 -0.784,0 -1.484,0.1983 -2.1,0.595 -0.616,0.3967 -1.1014,0.9753 -1.456,1.736 -0.3547,0.7607 -0.532,1.6637 -0.532,2.709 0,1.0453 0.1773,1.9483 0.532,2.709 0.3546,0.7607 0.84,1.3393 1.456,1.736 0.616,0.3967 1.316,0.595 2.1,0.595 z m 0,-1.582 c -0.6907,0 -1.239,-0.2893 -1.645,-0.868 -0.406,-0.5787 -0.609,-1.442 -0.609,-2.59 0,-1.148 0.203,-2.0113 0.609,-2.59 0.406,-0.5787 0.9543,-0.868 1.645,-0.868 0.7,0 1.253,0.2893 1.659,0.868 0.406,0.5787 0.609,1.442 0.609,2.59 0,1.148 -0.203,2.0113 -0.609,2.59 -0.406,0.5787 -0.959,0.868 -1.659,0.868 z m 10.0053,1.582 c 0.784,0 1.4863,-0.1983 2.107,-0.595 0.6207,-0.3967 1.1083,-0.9753 1.463,-1.736 0.3547,-0.7607 0.532,-1.6637 0.532,-2.709 0,-1.0453 -0.1773,-1.9483 -0.532,-2.709 -0.3547,-0.7607 -0.8423,-1.3393 -1.463,-1.736 -0.6207,-0.3967 -1.323,-0.595 -2.107,-0.595 -0.784,0 -1.484,0.1983 -2.1,0.595 -0.616,0.3967 -1.1013,0.9753 -1.456,1.736 -0.3547,0.7607 -0.532,1.6637 -0.532,2.709 0,1.0453 0.1773,1.9483 0.532,2.709 0.3547,0.7607 0.84,1.3393 1.456,1.736 0.616,0.3967 1.316,0.595 2.1,0.595 z m 0,-1.582 c -0.6907,0 -1.239,-0.2893 -1.645,-0.868 -0.406,-0.5787 -0.609,-1.442 -0.609,-2.59 0,-1.148 0.203,-2.0113 0.609,-2.59 0.406,-0.5787 0.9543,-0.868 1.645,-0.868 0.7,0 1.253,0.2893 1.659,0.868 0.406,0.5787 0.609,1.442 0.609,2.59 0,1.148 -0.203,2.0113 -0.609,2.59 -0.406,0.5787 -0.959,0.868 -1.659,0.868 z m 8.3533,1.442 v -6.412 l 3.22,5.292 h 0.812 l 3.22,-5.376 0.014,6.496 h 1.722 l -0.014,-9.8 h -1.498 l -3.822,6.496 -3.892,-6.496 h -1.498 v 9.8 z" />
  <polygon
     style="fill:url(#linearGradient245);stroke:none;stroke-width:1"
     points="2811,5643 0,5643 0,5642 2811,5642 "
     transform="matrix(1,0,0,-1,0,11285)"
     fill-rule="nonzero"
     fill="url(#linearGradient-1)"
     id="polygon179" />
  <path
     style="stroke:none;stroke-width:1"
     fill-rule="nonzero"
     fill="#f0f8ff"
     fill-opacity="0.32"
     id="900M"
     d="m 2818.4734,3644.54 c 0.952,0 1.7897,-0.203 2.513,-0.609 0.7234,-0.406 1.2857,-0.9987 1.687,-1.778 0.4014,-0.7793 0.602,-1.7197 0.602,-2.821 0,-1.568 -0.371,-2.772 -1.113,-3.612 -0.742,-0.84 -1.785,-1.26 -3.129,-1.26 -0.672,0 -1.2786,0.1307 -1.82,0.392 -0.5413,0.2613 -0.9706,0.6323 -1.288,1.113 -0.3173,0.4807 -0.476,1.0383 -0.476,1.673 0,0.5973 0.1447,1.1247 0.434,1.582 0.2894,0.4573 0.6907,0.8097 1.204,1.057 0.5134,0.2473 1.092,0.371 1.736,0.371 0.56,0 1.064,-0.086 1.512,-0.259 0.448,-0.1727 0.8167,-0.427 1.106,-0.763 v 0 0.014 c 0,1.092 -0.266,1.9273 -0.798,2.506 -0.532,0.5787 -1.2693,0.868 -2.212,0.868 -0.756,0 -1.3766,-0.1587 -1.862,-0.476 v 0 l -0.672,1.372 c 0.3267,0.2053 0.7117,0.3617 1.155,0.469 0.4434,0.1073 0.917,0.161 1.421,0.161 z m 0.7,-5.32 c -0.5973,0 -1.0733,-0.1493 -1.428,-0.448 -0.3546,-0.2987 -0.532,-0.7047 -0.532,-1.218 0,-0.504 0.1774,-0.9077 0.532,-1.211 0.3547,-0.3033 0.8167,-0.455 1.386,-0.455 0.6347,0 1.1317,0.1563 1.491,0.469 0.3594,0.3127 0.539,0.707 0.539,1.183 0,0.4853 -0.1843,0.8867 -0.553,1.204 -0.3686,0.3173 -0.847,0.476 -1.435,0.476 z m 10.0054,5.32 c 0.784,0 1.4863,-0.1983 2.107,-0.595 0.6206,-0.3967 1.1083,-0.9753 1.463,-1.736 0.3546,-0.7607 0.532,-1.6637 0.532,-2.709 0,-1.0453 -0.1774,-1.9483 -0.532,-2.709 -0.3547,-0.7607 -0.8424,-1.3393 -1.463,-1.736 -0.6207,-0.3967 -1.323,-0.595 -2.107,-0.595 -0.784,0 -1.484,0.1983 -2.1,0.595 -0.616,0.3967 -1.1014,0.9753 -1.456,1.736 -0.3547,0.7607 -0.532,1.6637 -0.532,2.709 0,1.0453 0.1773,1.9483 0.532,2.709 0.3546,0.7607 0.84,1.3393 1.456,1.736 0.616,0.3967 1.316,0.595 2.1,0.595 z m 0,-1.582 c -0.6907,0 -1.239,-0.2893 -1.645,-0.868 -0.406,-0.5787 -0.609,-1.442 -0.609,-2.59 0,-1.148 0.203,-2.0113 0.609,-2.59 0.406,-0.5787 0.9543,-0.868 1.645,-0.868 0.7,0 1.253,0.2893 1.659,0.868 0.406,0.5787 0.609,1.442 0.609,2.59 0,1.148 -0.203,2.0113 -0.609,2.59 -0.406,0.5787 -0.959,0.868 -1.659,0.868 z m 10.0053,1.582 c 0.784,0 1.4863,-0.1983 2.107,-0.595 0.6207,-0.3967 1.1083,-0.9753 1.463,-1.736 0.3547,-0.7607 0.532,-1.6637 0.532,-2.709 0,-1.0453 -0.1773,-1.9483 -0.532,-2.709 -0.3547,-0.7607 -0.8423,-1.3393 -1.463,-1.736 -0.6207,-0.3967 -1.323,-0.595 -2.107,-0.595 -0.784,0 -1.484,0.1983 -2.1,0.595 -0.616,0.3967 -1.1013,0.9753 -1.456,1.736 -0.3547,0.7607 -0.532,1.6637 -0.532,2.709 0,1.0453 0.1773,1.9483 0.532,2.709 0.3547,0.7607 0.84,1.3393 1.456,1.736 0.616,0.3967 1.316,0.595 2.1,0.595 z m 0,-1.582 c -0.6907,0 -1.239,-0.2893 -1.645,-0.868 -0.406,-0.5787 -0.609,-1.442 -0.609,-2.59 0,-1.148 0.203,-2.0113 0.609,-2.59 0.406,-0.5787 0.9543,-0.868 1.645,-0.868 0.7,0 1.253,0.2893 1.659,0.868 0.406,0.5787 0.609,1.442 0.609,2.59 0,1.148 -0.203,2.0113 -0.609,2.59 -0.406,0.5787 -0.959,0.868 -1.659,0.868 z m 8.3533,1.442 v -6.412 l 3.22,5.292 h 0.812 l 3.22,-5.376 0.014,6.496 h 1.722 l -0.014,-9.8 h -1.498 l -3.822,6.496 -3.892,-6.496 h -1.498 v 9.8 z" />
  <polygon
     style="fill:url(#linearGradient247);stroke:none;stroke-width:1"
     points="2811,5242 0,5242 0,5241 2811,5241 "
     transform="matrix(1,0,0,-1,0,10483)"
     fill-rule="nonzero"
     fill="url(#linearGradient-1)"
     id="polygon182" />
  <path
     style="stroke:none;stroke-width:1"
     fill-rule="nonzero"
     fill="#f0f8ff"
     fill-opacity="0.32"
     id="1300M"
     d="m 2816.6976,5246.4 v -9.8 h -3.892 v 1.526 h 2.072 v 8.274 z m 5.6093,0.14 c 0.84,0 1.5517,-0.1377 2.135,-0.4129 0.5834,-0.2754 1.0198,-0.6464 1.3091,-1.1131 0.2893,-0.4667 0.434,-0.9847 0.434,-1.554 0,-0.756 -0.238,-1.386 -0.714,-1.89 -0.476,-0.504 -1.1667,-0.812 -2.072,-0.924 v 0 l 2.38,-2.828 v -1.218 h -6.678 v 1.526 h 4.452 l -2.226,2.646 v 1.246 h 0.896 c 0.7187,0 1.253,0.1283 1.603,0.385 0.35,0.2567 0.525,0.6137 0.525,1.071 0,0.4573 -0.1843,0.819 -0.553,1.085 -0.3687,0.266 -0.875,0.399 -1.519,0.399 -0.5413,0 -1.0663,-0.086 -1.575,-0.259 -0.5087,-0.1727 -0.9403,-0.4083 -1.295,-0.707 v 0 l -0.784,1.414 c 0.4573,0.3547 1.0103,0.6323 1.659,0.833 0.6487,0.2007 1.323,0.301 2.0229,0.301 z m 9.7394,0 c 0.784,0 1.4864,-0.1983 2.107,-0.595 0.6207,-0.3967 1.1083,-0.9753 1.463,-1.736 0.3547,-0.7607 0.532,-1.6637 0.532,-2.709 0,-1.0453 -0.1773,-1.9483 -0.532,-2.709 -0.3547,-0.7607 -0.8423,-1.3392 -1.463,-1.736 -0.6206,-0.3967 -1.323,-0.595 -2.107,-0.595 -0.784,0 -1.484,0.1983 -2.1,0.595 -0.616,0.3968 -1.1013,0.9753 -1.456,1.736 -0.3547,0.7607 -0.532,1.6637 -0.532,2.709 0,1.0453 0.1773,1.9483 0.532,2.709 0.3547,0.7607 0.84,1.3393 1.456,1.736 0.616,0.3967 1.316,0.595 2.1,0.595 z m 0,-1.582 c -0.6906,0 -1.239,-0.2893 -1.645,-0.868 -0.406,-0.5787 -0.609,-1.442 -0.609,-2.59 0,-1.148 0.203,-2.0113 0.609,-2.59 0.406,-0.5787 0.9544,-0.868 1.645,-0.868 0.6999,0 1.253,0.2893 1.659,0.868 0.406,0.5787 0.609,1.442 0.609,2.59 0,1.148 -0.203,2.0113 -0.609,2.59 -0.406,0.5787 -0.959,0.868 -1.659,0.868 z m 10.0054,1.582 c 0.784,0 1.4863,-0.1983 2.107,-0.595 0.6206,-0.3967 1.1083,-0.9753 1.463,-1.736 0.3546,-0.7607 0.532,-1.6637 0.532,-2.709 0,-1.0453 -0.1774,-1.9483 -0.532,-2.709 -0.3547,-0.7607 -0.8424,-1.3392 -1.463,-1.736 -0.6207,-0.3967 -1.323,-0.595 -2.107,-0.595 -0.784,0 -1.484,0.1983 -2.1,0.595 -0.616,0.3968 -1.1014,0.9753 -1.456,1.736 -0.3547,0.7607 -0.532,1.6637 -0.532,2.709 0,1.0453 0.1773,1.9483 0.532,2.709 0.3546,0.7607 0.84,1.3393 1.456,1.736 0.616,0.3967 1.316,0.595 2.1,0.595 z m 0,-1.582 c -0.6908,0 -1.239,-0.2893 -1.645,-0.868 -0.406,-0.5787 -0.609,-1.442 -0.609,-2.59 0,-1.148 0.203,-2.0113 0.609,-2.59 0.406,-0.5787 0.9542,-0.868 1.645,-0.868 0.6999,0 1.253,0.2893 1.659,0.868 0.406,0.5787 0.609,1.442 0.609,2.59 0,1.148 -0.203,2.0113 -0.609,2.59 -0.406,0.5787 -0.959,0.868 -1.659,0.868 z m 8.3533,1.442 v -6.412 l 3.22,5.292 h 0.812 l 3.22,-5.376 0.014,6.496 h 1.722 l -0.014,-9.8 h -1.4979 l -3.822,6.496 -3.892,-6.496 h -1.498 v 9.8 z" />
  <polygon
     style="fill:url(#linearGradient249);stroke:none;stroke-width:1"
     points="2811,3640 0,3640 0,3639 2811,3639 "
     transform="matrix(1,0,0,-1,0,7279)"
     fill-rule="nonzero"
     fill="url(#linearGradient-1)"
     id="polygon185" />
  <path
     style="stroke:none;stroke-width:1"
     fill-rule="nonzero"
     fill="#f0f8ff"
     fill-opacity="0.32"
     id="1700M"
     d="m 2816.6557,6850.4 v -9.8 h -3.892 v 1.526 h 2.072 v 8.274 z m 6.1133,0 3.808,-8.582 v -1.218 h -7.616 v 3.206 h 1.6939 v -1.666 h 3.8501 l -3.682,8.26 z m 9.3193,0.14 c 0.7839,0 1.4864,-0.1983 2.107,-0.595 0.6206,-0.3967 1.1084,-0.9753 1.463,-1.736 0.3546,-0.7607 0.532,-1.6637 0.532,-2.709 0,-1.0453 -0.1773,-1.9483 -0.532,-2.709 -0.3546,-0.7607 -0.8423,-1.3392 -1.463,-1.736 -0.6206,-0.3967 -1.3231,-0.595 -2.107,-0.595 -0.784,0 -1.4841,0.1983 -2.1001,0.595 -0.616,0.3968 -1.1012,0.9753 -1.456,1.736 -0.3545,0.7607 -0.5319,1.6637 -0.5319,2.709 0,1.0453 0.1774,1.9483 0.5319,2.709 0.3547,0.7607 0.84,1.3393 1.456,1.736 0.616,0.3967 1.3161,0.595 2.1001,0.595 z m 0,-1.582 c -0.6906,0 -1.239,-0.2893 -1.6451,-0.868 -0.4059,-0.5787 -0.6089,-1.442 -0.6089,-2.59 0,-1.148 0.203,-2.0113 0.6089,-2.59 0.4061,-0.5787 0.9545,-0.868 1.6451,-0.868 0.7,0 1.253,0.2893 1.6589,0.868 0.4061,0.5787 0.6091,1.442 0.6091,2.59 0,1.148 -0.203,2.0113 -0.6091,2.59 -0.4059,0.5787 -0.9589,0.868 -1.6589,0.868 z m 10.0054,1.582 c 0.7839,0 1.4863,-0.1983 2.107,-0.595 0.6206,-0.3967 1.1083,-0.9753 1.463,-1.736 0.3546,-0.7607 0.532,-1.6637 0.532,-2.709 0,-1.0453 -0.1774,-1.9483 -0.532,-2.709 -0.3547,-0.7607 -0.8424,-1.3392 -1.463,-1.736 -0.6207,-0.3967 -1.3231,-0.595 -2.107,-0.595 -0.784,0 -1.4841,0.1983 -2.1001,0.595 -0.616,0.3968 -1.1013,0.9753 -1.456,1.736 -0.3547,0.7607 -0.5319,1.6637 -0.5319,2.709 0,1.0453 0.1772,1.9483 0.5319,2.709 0.3547,0.7607 0.84,1.3393 1.456,1.736 0.616,0.3967 1.3161,0.595 2.1001,0.595 z m 0,-1.582 c -0.6907,0 -1.239,-0.2893 -1.6451,-0.868 -0.4059,-0.5787 -0.6089,-1.442 -0.6089,-2.59 0,-1.148 0.203,-2.0113 0.6089,-2.59 0.4061,-0.5787 0.9544,-0.868 1.6451,-0.868 0.7,0 1.253,0.2893 1.6589,0.868 0.4061,0.5787 0.6091,1.442 0.6091,2.59 0,1.148 -0.203,2.0113 -0.6091,2.59 -0.4059,0.5787 -0.9589,0.868 -1.6589,0.868 z m 8.3533,1.442 v -6.412 l 3.22,5.292 h 0.812 l 3.2199,-5.376 0.014,6.496 h 1.722 l -0.014,-9.8 h -1.4981 l -3.822,6.496 -3.892,-6.496 h -1.4979 v 9.8 z" />
  <polygon
     style="fill:url(#linearGradient251);stroke:none;stroke-width:1"
     points="2811,2040 0,2040 0,2039 2811,2039 "
     transform="matrix(1,0,0,-1,0,4079)"
     fill-rule="nonzero"
     fill="url(#linearGradient-1)"
     id="polygon188" />
  <path
     style="stroke:none;stroke-width:1"
     fill-rule="nonzero"
     fill="#f0f8ff"
     fill-opacity="0.32"
     id="1900M"
     d="m 2816.3827,7652.4 v -9.8 h -3.892 v 1.526 h 2.072 v 8.274 z m 5.2732,0.14 c 0.9521,0 1.7897,-0.203 2.513,-0.609 0.7234,-0.406 1.2857,-0.9987 1.687,-1.778 0.4014,-0.7793 0.602,-1.7197 0.602,-2.821 0,-1.568 -0.371,-2.772 -1.1129,-3.612 -0.742,-0.84 -1.785,-1.26 -3.1291,-1.26 -0.672,0 -1.2786,0.1307 -1.82,0.392 -0.5413,0.2613 -0.9707,0.6323 -1.288,1.113 -0.3173,0.4807 -0.476,1.0383 -0.476,1.673 0,0.5973 0.1447,1.1247 0.434,1.582 0.2894,0.4573 0.6907,0.8097 1.204,1.057 0.5134,0.2473 1.0921,0.371 1.7361,0.371 0.5599,0 1.0639,-0.086 1.512,-0.259 0.4479,-0.1727 0.8167,-0.427 1.106,-0.763 v 0 0.014 c 0,1.092 -0.266,1.9273 -0.7981,2.506 -0.5319,0.5787 -1.2692,0.868 -2.2119,0.868 -0.756,0 -1.3767,-0.1587 -1.862,-0.4759 v 0 l -0.672,1.372 c 0.3267,0.2052 0.7117,0.3617 1.155,0.469 0.4433,0.1073 0.917,0.161 1.4209,0.1609 z m 0.7,-5.32 c -0.5973,0 -1.0733,-0.1493 -1.428,-0.448 -0.3547,-0.2987 -0.532,-0.7047 -0.532,-1.218 0,-0.504 0.1773,-0.9077 0.532,-1.211 0.3547,-0.3033 0.8168,-0.455 1.386,-0.455 0.6347,0 1.1317,0.1563 1.491,0.469 0.3593,0.3127 0.5391,0.707 0.5391,1.183 0,0.4853 -0.1843,0.8867 -0.553,1.204 -0.3687,0.3173 -0.847,0.476 -1.4351,0.476 z m 10.0053,5.32 c 0.784,0 1.4864,-0.1983 2.107,-0.595 0.6207,-0.3967 1.1084,-0.9753 1.463,-1.736 0.3547,-0.7607 0.5321,-1.6637 0.5321,-2.709 0,-1.0453 -0.1773,-1.9483 -0.5321,-2.709 -0.3546,-0.7607 -0.8423,-1.3392 -1.463,-1.736 -0.6206,-0.3967 -1.323,-0.595 -2.107,-0.595 -0.784,0 -1.484,0.1983 -2.1,0.595 -0.616,0.3968 -1.1013,0.9753 -1.456,1.736 -0.3546,0.7607 -0.532,1.6637 -0.532,2.709 0,1.0453 0.1774,1.9483 0.532,2.709 0.3547,0.7607 0.84,1.3393 1.456,1.736 0.616,0.3967 1.316,0.595 2.1,0.595 z m 0,-1.582 c -0.6906,0 -1.239,-0.2893 -1.645,-0.868 -0.4059,-0.5787 -0.609,-1.442 -0.609,-2.59 0,-1.148 0.2031,-2.0113 0.609,-2.59 0.406,-0.5787 0.9544,-0.868 1.645,-0.868 0.7,0 1.2531,0.2893 1.659,0.868 0.4061,0.5787 0.609,1.442 0.609,2.59 0,1.148 -0.2029,2.0113 -0.609,2.59 -0.4059,0.5787 -0.9589,0.868 -1.659,0.868 z m 10.0054,1.582 c 0.7841,0 1.4864,-0.1983 2.107,-0.595 0.6206,-0.3967 1.1083,-0.9753 1.4631,-1.736 0.3545,-0.7607 0.532,-1.6637 0.532,-2.709 0,-1.0453 -0.1775,-1.9483 -0.532,-2.709 -0.3547,-0.7607 -0.8425,-1.3392 -1.4631,-1.736 -0.6206,-0.3967 -1.3229,-0.595 -2.107,-0.595 -0.784,0 -1.4839,0.1983 -2.0999,0.595 -0.616,0.3968 -1.1015,0.9753 -1.4561,1.736 -0.3546,0.7607 -0.532,1.6637 -0.532,2.709 0,1.0453 0.1773,1.9483 0.532,2.709 0.3546,0.7607 0.8401,1.3393 1.4561,1.736 0.616,0.3967 1.3159,0.595 2.0999,0.595 z m 0,-1.582 c -0.6906,0 -1.239,-0.2893 -1.6449,-0.868 -0.406,-0.5787 -0.609,-1.442 -0.609,-2.59 0,-1.148 0.203,-2.0113 0.609,-2.59 0.4059,-0.5787 0.9543,-0.868 1.6449,-0.868 0.7001,0 1.2531,0.2893 1.6591,0.868 0.406,0.5787 0.6089,1.442 0.6089,2.59 0,1.148 -0.2029,2.0113 -0.6089,2.59 -0.406,0.5787 -0.959,0.868 -1.6591,0.868 z m 8.3534,1.442 v -6.412 l 3.2199,5.292 h 0.812 l 3.22,-5.376 0.014,6.496 h 1.722 l -0.014,-9.8 h -1.4981 l -3.822,6.496 -3.892,-6.496 h -1.498 v 9.8 z" />
  <polygon
     style="fill:url(#linearGradient253);stroke:none;stroke-width:1"
     points="2811,1240 0,1240 0,1239 2811,1239 "
     transform="matrix(1,0,0,-1,0,2479)"
     fill-rule="nonzero"
     fill="url(#linearGradient-1)"
     id="polygon191" />
  <path
     style="stroke:none;stroke-width:1"
     fill-rule="nonzero"
     fill="#f0f8ff"
     fill-opacity="0.32"
     id="1800M"
     d="m 2816.2077,7251.4 v -9.8 h -3.8919 v 1.526 h 2.072 v 8.274 z m 6.4633,0.14 c 0.8027,0 1.5074,-0.119 2.114,-0.357 0.6067,-0.238 1.0758,-0.581 1.407,-1.029 0.3313,-0.448 0.497,-0.9707 0.497,-1.568 0,-0.532 -0.1376,-0.9963 -0.413,-1.393 -0.2753,-0.3967 -0.6696,-0.7117 -1.183,-0.945 0.4013,-0.224 0.7094,-0.5087 0.924,-0.854 0.2147,-0.3453 0.322,-0.7467 0.322,-1.204 0,-0.5507 -0.1539,-1.0313 -0.462,-1.442 -0.3079,-0.4107 -0.7372,-0.728 -1.288,-0.952 -0.5506,-0.224 -1.1899,-0.336 -1.918,-0.336 -0.7187,0 -1.3533,0.112 -1.904,0.336 -0.5506,0.224 -0.9777,0.5413 -1.281,0.952 -0.3032,0.4107 -0.455,0.8913 -0.455,1.442 0,0.4573 0.105,0.861 0.3151,1.211 0.2099,0.35 0.5109,0.6323 0.9029,0.847 -0.504,0.2333 -0.8913,0.5483 -1.1619,0.945 -0.2708,0.3967 -0.4061,0.861 -0.4061,1.393 0,0.5973 0.1633,1.12 0.49,1.568 0.3267,0.448 0.7911,0.791 1.393,1.029 0.6021,0.238 1.3043,0.357 2.107,0.357 z m 0,-5.894 c -0.5692,0 -1.0196,-0.1237 -1.351,-0.371 -0.3313,-0.2473 -0.497,-0.581 -0.497,-1.001 0,-0.4387 0.1657,-0.7793 0.497,-1.022 0.3313,-0.2427 0.7818,-0.364 1.351,-0.364 0.5694,0 1.0244,0.1213 1.365,0.364 0.3407,0.2427 0.511,0.5833 0.511,1.022 0,0.42 -0.168,0.7537 -0.504,1.001 -0.336,0.2473 -0.7933,0.371 -1.372,0.371 z m 0,4.466 c -0.672,0 -1.1993,-0.14 -1.582,-0.42 -0.3827,-0.28 -0.5739,-0.6673 -0.5739,-1.162 0,-0.4853 0.1912,-0.868 0.5739,-1.148 0.3828,-0.28 0.91,-0.42 1.582,-0.42 0.672,0 1.204,0.14 1.596,0.42 0.392,0.28 0.5881,0.6627 0.5881,1.148 0,0.4947 -0.196,0.882 -0.5881,1.162 -0.392,0.28 -0.924,0.42 -1.596,0.42 z m 9.8653,1.428 c 0.7841,0 1.4864,-0.1983 2.107,-0.595 0.6208,-0.3967 1.1084,-0.9753 1.4631,-1.736 0.3547,-0.7607 0.5319,-1.6637 0.5319,-2.709 0,-1.0453 -0.1772,-1.9483 -0.5319,-2.709 -0.3547,-0.7607 -0.8423,-1.3393 -1.4631,-1.736 -0.6206,-0.3967 -1.3229,-0.595 -2.107,-0.595 -0.784,0 -1.4839,0.1983 -2.0999,0.595 -0.616,0.3967 -1.1013,0.9753 -1.456,1.736 -0.3547,0.7607 -0.5321,1.6637 -0.5321,2.709 0,1.0453 0.1774,1.9483 0.5321,2.709 0.3547,0.7607 0.84,1.3393 1.456,1.736 0.616,0.3967 1.3159,0.595 2.0999,0.595 z m 0,-1.582 c -0.6906,0 -1.239,-0.2893 -1.6449,-0.868 -0.4061,-0.5787 -0.6091,-1.442 -0.6091,-2.59 0,-1.148 0.203,-2.0113 0.6091,-2.59 0.4059,-0.5787 0.9543,-0.8681 1.6449,-0.8681 0.7,0 1.253,0.2894 1.6591,0.8681 0.4059,0.5787 0.6089,1.442 0.6089,2.59 0,1.148 -0.203,2.0113 -0.6089,2.59 -0.4061,0.5787 -0.9591,0.868 -1.6591,0.868 z m 10.0054,1.582 c 0.7841,0 1.4863,-0.1983 2.107,-0.595 0.6206,-0.3967 1.1083,-0.9753 1.4631,-1.736 0.3546,-0.7607 0.5319,-1.6637 0.5319,-2.709 0,-1.0453 -0.1773,-1.9483 -0.5319,-2.709 -0.3547,-0.7607 -0.8425,-1.3393 -1.4631,-1.736 -0.6207,-0.3967 -1.3229,-0.595 -2.107,-0.595 -0.784,0 -1.4839,0.1983 -2.0999,0.595 -0.616,0.3967 -1.1015,0.9753 -1.456,1.736 -0.3547,0.7607 -0.5321,1.6637 -0.5321,2.709 0,1.0453 0.1773,1.9483 0.5321,2.709 0.3545,0.7607 0.84,1.3393 1.456,1.736 0.616,0.3967 1.3159,0.595 2.0999,0.595 z m 0,-1.582 c -0.6907,0 -1.239,-0.2893 -1.6449,-0.868 -0.4061,-0.5787 -0.6091,-1.442 -0.6091,-2.59 0,-1.148 0.203,-2.0113 0.6091,-2.59 0.4059,-0.5787 0.9542,-0.8681 1.6449,-0.8681 0.7,0 1.253,0.2894 1.6591,0.8681 0.4059,0.5787 0.6089,1.442 0.6089,2.59 0,1.148 -0.203,2.0113 -0.6089,2.59 -0.4061,0.5787 -0.9591,0.868 -1.6591,0.868 z m 8.3533,1.442 v -6.412 l 3.22,5.292 h 0.812 l 3.22,-5.376 0.014,6.496 h 1.722 l -0.014,-9.8 h -1.4979 l -3.8221,6.496 -3.8919,-6.496 h -1.4981 v 9.8 z" />
  <polygon
     style="fill:url(#linearGradient255);stroke:none;stroke-width:1"
     points="2811,1641 0,1641 0,1640 2811,1640 "
     transform="matrix(1,0,0,-1,0,3281)"
     fill-rule="nonzero"
     fill="url(#linearGradient-1)"
     id="polygon194" />
  <path
     style="stroke:none;stroke-width:1"
     fill-rule="nonzero"
     fill="#f0f8ff"
     fill-opacity="0.32"
     id="1500M"
     d="m 2816.6837,6048.4 v -9.8 h -3.892 v 1.526 h 2.072 v 8.274 z m 5.7773,0.14 c 0.8493,0 1.5633,-0.14 2.142,-0.42 0.5787,-0.28 1.0127,-0.658 1.3019,-1.134 0.2894,-0.476 0.4341,-1.008 0.4341,-1.596 0,-0.924 -0.3313,-1.6543 -0.994,-2.1909 -0.6627,-0.5367 -1.6847,-0.8051 -3.066,-0.8051 v 0 h -0.938 l 0.21,-2.268 h 4.214 v -1.526 h -5.754 l -0.504,5.334 h 2.366 c 0.9613,0 1.6403,0.1284 2.037,0.3851 0.3967,0.2566 0.595,0.6369 0.595,1.1409 0,0.4667 -0.1843,0.833 -0.553,1.099 -0.3687,0.266 -0.875,0.3991 -1.5191,0.3991 -0.5412,0 -1.0662,-0.086 -1.5749,-0.259 -0.5087,-0.1727 -0.945,-0.4083 -1.3091,-0.7071 v 0 l -0.7699,1.414 c 0.4479,0.3547 0.9987,0.6323 1.652,0.833 0.6533,0.2007 1.33,0.301 2.03,0.301 z m 9.5993,0 c 0.7839,0 1.4863,-0.1983 2.107,-0.595 0.6206,-0.3967 1.1084,-0.9753 1.4629,-1.736 0.3547,-0.7607 0.5321,-1.6637 0.5321,-2.709 0,-1.0453 -0.1773,-1.9483 -0.5321,-2.709 -0.3545,-0.7607 -0.8422,-1.3392 -1.4629,-1.736 -0.6207,-0.3967 -1.3231,-0.595 -2.107,-0.595 -0.784,0 -1.4841,0.1983 -2.1001,0.595 -0.616,0.3968 -1.1012,0.9753 -1.456,1.736 -0.3546,0.7607 -0.5319,1.6637 -0.5319,2.709 0,1.0453 0.1773,1.9483 0.5319,2.709 0.3547,0.7607 0.84,1.3393 1.456,1.736 0.616,0.3967 1.3161,0.595 2.1001,0.595 z m 0,-1.582 c -0.6906,0 -1.239,-0.2893 -1.6451,-0.868 -0.4059,-0.5787 -0.6089,-1.442 -0.6089,-2.59 0,-1.148 0.203,-2.0113 0.6089,-2.59 0.4061,-0.5787 0.9545,-0.868 1.6451,-0.868 0.6999,0 1.253,0.2893 1.6589,0.868 0.4061,0.5787 0.6091,1.442 0.6091,2.59 0,1.148 -0.203,2.0113 -0.6091,2.59 -0.4059,0.5787 -0.9589,0.868 -1.6589,0.868 z m 10.0054,1.582 c 0.7839,0 1.4863,-0.1983 2.107,-0.595 0.6206,-0.3967 1.1082,-0.9753 1.4629,-1.736 0.3547,-0.7607 0.5321,-1.6637 0.5321,-2.709 0,-1.0453 -0.1774,-1.9483 -0.5321,-2.709 -0.3547,-0.7607 -0.8423,-1.3392 -1.4629,-1.736 -0.6207,-0.3967 -1.3231,-0.595 -2.107,-0.595 -0.784,0 -1.4841,0.1983 -2.1001,0.595 -0.616,0.3968 -1.1013,0.9753 -1.456,1.736 -0.3547,0.7607 -0.5319,1.6637 -0.5319,2.709 0,1.0453 0.1772,1.9483 0.5319,2.709 0.3547,0.7607 0.84,1.3393 1.456,1.736 0.616,0.3967 1.3161,0.595 2.1001,0.595 z m 0,-1.582 c -0.6908,0 -1.239,-0.2893 -1.6451,-0.868 -0.4059,-0.5787 -0.6089,-1.442 -0.6089,-2.59 0,-1.148 0.203,-2.0113 0.6089,-2.59 0.4061,-0.5787 0.9543,-0.868 1.6451,-0.868 0.6999,0 1.253,0.2893 1.6589,0.868 0.4061,0.5787 0.6091,1.442 0.6091,2.59 0,1.148 -0.203,2.0113 -0.6091,2.59 -0.4059,0.5787 -0.9589,0.868 -1.6589,0.868 z m 8.3533,1.442 v -6.412 l 3.22,5.292 h 0.8119 l 3.22,-5.376 0.014,6.496 h 1.722 l -0.014,-9.8 h -1.4981 l -3.822,6.496 -3.892,-6.496 h -1.498 v 9.8 z" />
  <polygon
     style="fill:url(#linearGradient257);stroke:none;stroke-width:1"
     points="2811,2840 0,2840 0,2839 2811,2839 "
     transform="matrix(1,0,0,-1,0,5679)"
     fill-rule="nonzero"
     fill="url(#linearGradient-1)"
     id="polygon197" />
  <path
     style="stroke:none;stroke-width:1"
     fill-rule="nonzero"
     fill="#f0f8ff"
     fill-opacity="0.32"
     id="1400M"
     d="m 2816.0186,5647.4 v -9.8 h -3.892 v 1.526 h 2.072 v 8.2739 z m 9.5293,0 v -2.226 h 1.7361 v -1.5401 h -1.7361 v -1.974 h -1.7079 v 1.974 h -3.2061 l 4.5501,-6.0339 h -1.946 l -4.83,6.314 v 1.2601 h 5.376 v 2.226 z m 7.1774,0.14 c 0.784,0 1.4863,-0.1983 2.107,-0.595 0.6207,-0.3967 1.1084,-0.9753 1.463,-1.736 0.3547,-0.7607 0.5319,-1.6637 0.5319,-2.709 0,-1.0453 -0.1772,-1.9483 -0.5319,-2.709 -0.3546,-0.7607 -0.8423,-1.3392 -1.463,-1.736 -0.6207,-0.3967 -1.323,-0.595 -2.107,-0.595 -0.7841,0 -1.484,0.1983 -2.1,0.595 -0.616,0.3968 -1.1013,0.9753 -1.456,1.736 -0.3547,0.7607 -0.5321,1.6637 -0.5321,2.709 0,1.0453 0.1774,1.9483 0.5321,2.709 0.3547,0.7607 0.84,1.3393 1.456,1.736 0.616,0.3967 1.3159,0.595 2.1,0.595 z m 0,-1.582 c -0.6906,0 -1.2391,-0.2893 -1.645,-0.868 -0.4061,-0.5787 -0.609,-1.442 -0.609,-2.5901 0,-1.1479 0.2029,-2.0113 0.609,-2.59 0.4059,-0.5787 0.9544,-0.8679 1.645,-0.8679 0.6999,0 1.2529,0.2892 1.659,0.8679 0.4059,0.5787 0.609,1.4421 0.609,2.59 0,1.1481 -0.2031,2.0114 -0.609,2.5901 -0.4061,0.5787 -0.9591,0.868 -1.659,0.868 z m 10.0054,1.582 c 0.784,0 1.4862,-0.1983 2.107,-0.595 0.6206,-0.3967 1.1082,-0.9753 1.463,-1.736 0.3546,-0.7607 0.5319,-1.6637 0.5319,-2.709 0,-1.0453 -0.1773,-1.9483 -0.5319,-2.709 -0.3547,-0.7607 -0.8424,-1.3392 -1.463,-1.736 -0.6208,-0.3967 -1.323,-0.595 -2.107,-0.595 -0.7841,0 -1.484,0.1983 -2.1,0.595 -0.616,0.3968 -1.1014,0.9753 -1.456,1.736 -0.3547,0.7607 -0.5321,1.6637 -0.5321,2.709 0,1.0453 0.1773,1.9483 0.5321,2.709 0.3546,0.7607 0.84,1.3393 1.456,1.736 0.616,0.3967 1.3159,0.595 2.1,0.595 z m 0,-1.582 c -0.6908,0 -1.2391,-0.2893 -1.645,-0.868 -0.4061,-0.5787 -0.609,-1.442 -0.609,-2.5901 0,-1.1479 0.2029,-2.0113 0.609,-2.59 0.4059,-0.5787 0.9542,-0.8679 1.645,-0.8679 0.6999,0 1.2529,0.2892 1.659,0.8679 0.4059,0.5787 0.609,1.4421 0.609,2.59 0,1.1481 -0.2031,2.0114 -0.609,2.5901 -0.4061,0.5787 -0.9591,0.868 -1.659,0.868 z m 8.3532,1.442 v -6.412 l 3.2201,5.292 h 0.8119 l 3.22,-5.376 0.014,6.496 h 1.7221 l -0.014,-9.8 h -1.4979 l -3.822,6.496 -3.892,-6.496 h -1.4981 v 9.8 z" />
  <polygon
     style="fill:url(#linearGradient259);stroke:none;stroke-width:1"
     points="2811,3241 0,3241 0,3240 2811,3240 "
     transform="matrix(1,0,0,-1,0,6481)"
     fill-rule="nonzero"
     fill="url(#linearGradient-1)"
     id="polygon200" />
  <path
     style="stroke:none;stroke-width:1"
     fill-rule="nonzero"
     fill="#f0f8ff"
     fill-opacity="0.32"
     id="1600M"
     d="m 2816.3827,6449.4 v -9.8 h -3.892 v 1.526 h 2.072 v 8.274 z m 6.7713,0.1401 c 0.672,0 1.2787,-0.1307 1.82,-0.392 0.5413,-0.2613 0.9707,-0.6323 1.288,-1.113 0.3173,-0.4808 0.476,-1.0384 0.476,-1.673 0,-0.5974 -0.1447,-1.1248 -0.434,-1.5821 -0.2893,-0.4573 -0.6907,-0.8096 -1.204,-1.0569 -0.5133,-0.2473 -1.092,-0.371 -1.736,-0.371 -0.56,0 -1.064,0.086 -1.512,0.259 -0.448,0.1727 -0.8167,0.4269 -1.106,0.7629 v 0 -0.014 c 0,-1.0919 0.266,-1.9273 0.798,-2.506 0.532,-0.5787 1.2693,-0.868 2.212,-0.868 0.756,0 1.3767,0.1587 1.862,0.476 v 0 l 0.672,-1.3721 c -0.3267,-0.2052 -0.7117,-0.3617 -1.155,-0.469 -0.4433,-0.1072 -0.917,-0.161 -1.421,-0.161 -0.952,0 -1.7897,0.2031 -2.513,0.6091 -0.7233,0.4059 -1.2857,0.9987 -1.687,1.778 -0.4013,0.7793 -0.602,1.7196 -0.602,2.821 0,1.568 0.371,2.772 1.113,3.612 0.742,0.84 1.785,1.26 3.129,1.2601 z m -0.098,-1.428 c -0.6347,0 -1.1317,-0.1563 -1.491,-0.469 -0.3593,-0.3128 -0.539,-0.7071 -0.539,-1.183 0,-0.4854 0.1843,-0.8867 0.553,-1.204 0.3687,-0.3173 0.847,-0.476 1.435,-0.476 0.5973,0 1.0733,0.1493 1.428,0.448 0.3547,0.2987 0.532,0.7047 0.532,1.218 0,0.504 -0.1773,0.9077 -0.532,1.211 -0.3547,0.3033 -0.8167,0.455 -1.386,0.455 z m 9.3053,1.428 c 0.784,0 1.4864,-0.1983 2.107,-0.5951 0.6207,-0.3967 1.1084,-0.9753 1.463,-1.7359 0.3547,-0.7607 0.532,-1.6638 0.532,-2.709 0,-1.0453 -0.1773,-1.9483 -0.532,-2.709 -0.3546,-0.7607 -0.8423,-1.3393 -1.463,-1.736 -0.6206,-0.3967 -1.323,-0.595 -2.107,-0.595 -0.784,0 -1.484,0.1983 -2.1,0.595 -0.616,0.3967 -1.1013,0.9753 -1.456,1.736 -0.3546,0.7607 -0.532,1.6637 -0.532,2.709 0,1.0452 0.1774,1.9483 0.532,2.709 0.3547,0.7606 0.84,1.3392 1.456,1.7359 0.616,0.3968 1.316,0.5951 2.1,0.5951 z m 0,-1.5821 c -0.6906,0 -1.239,-0.2893 -1.645,-0.868 -0.406,-0.5787 -0.609,-1.442 -0.609,-2.59 0,-1.148 0.203,-2.0113 0.609,-2.59 0.406,-0.5787 0.9544,-0.8681 1.645,-0.8681 0.7,0 1.253,0.2894 1.659,0.8681 0.406,0.5787 0.609,1.442 0.609,2.59 0,1.148 -0.203,2.0113 -0.609,2.59 -0.406,0.5787 -0.959,0.868 -1.659,0.868 z m 10.0054,1.5821 c 0.784,0 1.4863,-0.1983 2.107,-0.5951 0.6206,-0.3967 1.1083,-0.9753 1.463,-1.7359 0.3546,-0.7607 0.532,-1.6638 0.532,-2.709 0,-1.0453 -0.1774,-1.9483 -0.532,-2.709 -0.3547,-0.7607 -0.8424,-1.3393 -1.463,-1.736 -0.6207,-0.3967 -1.323,-0.595 -2.107,-0.595 -0.784,0 -1.484,0.1983 -2.1,0.595 -0.616,0.3967 -1.1014,0.9753 -1.456,1.736 -0.3547,0.7607 -0.532,1.6637 -0.532,2.709 0,1.0452 0.1773,1.9483 0.532,2.709 0.3546,0.7606 0.84,1.3392 1.456,1.7359 0.616,0.3968 1.316,0.5951 2.1,0.5951 z m 0,-1.5821 c -0.6907,0 -1.239,-0.2893 -1.645,-0.868 -0.406,-0.5787 -0.609,-1.442 -0.609,-2.59 0,-1.148 0.203,-2.0113 0.609,-2.59 0.406,-0.5787 0.9543,-0.8681 1.645,-0.8681 0.7,0 1.253,0.2894 1.659,0.8681 0.406,0.5787 0.609,1.442 0.609,2.59 0,1.148 -0.203,2.0113 -0.609,2.59 -0.406,0.5787 -0.959,0.868 -1.659,0.868 z m 8.3533,1.442 v -6.412 l 3.22,5.292 h 0.812 l 3.22,-5.376 0.014,6.496 h 1.722 l -0.014,-9.8 h -1.498 l -3.822,6.496 -3.892,-6.496 h -1.498 v 9.8 z" />
  <polygon
     style="fill:url(#linearGradient261);stroke:none;stroke-width:1"
     points="2811,2441 0,2441 0,2440 2811,2440 "
     transform="matrix(1,0,0,-1,0,4881)"
     fill-rule="nonzero"
     fill="url(#linearGradient-1)"
     id="polygon203" />
  <g
     style="stroke:none;stroke-width:1"
     fill-rule="nonzero"
     fill="#27b18a"
     transform="translate(0,20)"
     id="g210">
    <g
       id="g208">
      <polygon
         points="2800,21 0,21 0,20 2800,20 "
         transform="matrix(1,0,0,-1,0,41)"
         id="polygon205" />
      <path
         id="FINISH"
         d="m 2813.82,24.94 v -3.752 h 4.732 v -1.54 h -4.732 v -2.982 h 5.334 V 15.14 H 2812 v 9.8 z m 9.5013,0 v -9.8 h -1.82 v 9.8 z m 5.0354,0 v -6.636 l 5.404,6.636 h 1.498 v -9.8 h -1.806 v 6.636 l -5.404,-6.636 h -1.498 v 9.8 z m 11.9373,0 v -9.8 h -1.82 v 9.8 z m 6.2673,0.14 c 0.8587,0 1.5867,-0.130667 2.184,-0.392 0.5974,-0.261333 1.043,-0.611333 1.337,-1.05 0.294,-0.438667 0.441,-0.928667 0.441,-1.47 0,-0.634667 -0.1656,-1.138667 -0.497,-1.512 -0.3313,-0.373333 -0.7303,-0.651 -1.197,-0.833 -0.4666,-0.182 -1.064,-0.357 -1.792,-0.525 -0.532,-0.130667 -0.952,-0.247333 -1.26,-0.35 -0.308,-0.102667 -0.5623,-0.242667 -0.763,-0.42 -0.2006,-0.177333 -0.301,-0.406 -0.301,-0.686 0,-0.401333 0.175,-0.723333 0.525,-0.966 0.35,-0.242667 0.8844,-0.364 1.603,-0.364 0.4387,0 0.8914,0.06533 1.358,0.196 0.4667,0.130667 0.9147,0.322 1.344,0.574 v 0 l 0.574,-1.414 c -0.42,-0.28 -0.9193,-0.494667 -1.498,-0.644 -0.5786,-0.149333 -1.1666,-0.224 -1.764,-0.224 -0.8586,0 -1.5843,0.130667 -2.177,0.392 -0.5926,0.261333 -1.036,0.613667 -1.33,1.057 -0.294,0.443333 -0.441,0.935667 -0.441,1.477 0,0.644 0.1657,1.155 0.497,1.533 0.3314,0.378 0.728,0.655667 1.19,0.833 0.462,0.177333 1.0664,0.354667 1.813,0.532 0.532,0.130667 0.952,0.247333 1.26,0.35 0.308,0.102667 0.5624,0.245 0.763,0.427 0.2007,0.182 0.301,0.413 0.301,0.693 0,0.382667 -0.1796,0.690667 -0.539,0.924 -0.3593,0.233333 -0.903,0.35 -1.631,0.35 -0.588,0 -1.1736,-0.100333 -1.757,-0.301 -0.5833,-0.200667 -1.0756,-0.459667 -1.477,-0.777 v 0 l -0.63,1.414 c 0.4107,0.354667 0.9684,0.639333 1.673,0.854 0.7047,0.214667 1.435,0.322 2.191,0.322 z m 8.1714,-0.14 v -4.2 h 5.068 v 4.2 h 1.82 v -9.8 h -1.82 v 4.046 h -5.068 V 15.14 h -1.82 v 9.8 z" />
    </g>
  </g>
</svg>
