<?xml version="1.0" encoding="utf-8"?>
<!-- Generator: Adobe Illustrator 24.0.0, SVG Export Plug-In . SVG Version: 6.00 Build 0)  -->
<svg version="1.1" id="Layer_1" xmlns="http://www.w3.org/2000/svg" xmlns:xlink="http://www.w3.org/1999/xlink" x="0px" y="0px"
	 viewBox="0 0 3500 3500" style="enable-background:new 0 0 3500 3500;" xml:space="preserve">
<style type="text/css">
	.st0{fill:#6F2ED6;}
	.st1{fill:#FFFFFF;}
</style>
<g>
	<g>
		<g>
			<path id="SVGID_1_" class="st0" d="M1750,0c966.5,0,1750,783.5,1750,1750s-783.5,1750-1750,1750S0,2716.5,0,1750S783.5,0,1750,0
				L1750,0z"/>
		</g>
	</g>
	<g>
		<path class="st1" d="M801.8,1450.6l462.4-137v376h829.5c91.3,0,154.9-50.1,190.8-150.4c14.7-41.2,22-84.1,22-128.9
			c0-109.2-33.4-188.9-100.3-239c-34.3-23.3-71.8-34.9-112.5-34.9H801.8l124.8-453.8h1172c239.8,0,425.7,95.8,557.9,287.3
			c92.9,136.1,139.5,290.9,139.5,464.6c0,207.7-63.6,378.6-190.8,512.9c-66.9,69.8-145.2,120.8-234.9,153.1l482,717h-545.6
			l-423.3-674h-619v674H801.8V1450.6z"/>
	</g>
</g>
</svg>
