<svg xmlns="http://www.w3.org/2000/svg" width="100" height="100"><path d="M20 95c-7.7 0-14-6.3-14-14V21c0-7.7 6.3-14 14-14h60c7.7 0 14 6.3 14 14v60c0 7.7-6.3 14-14 14H20z" opacity=".8"/><path d="M80 92H20c-6.6 0-12-5.4-12-12V20c0-6.6 5.4-12 12-12h60c6.6 0 12 5.4 12 12v60c0 6.6-5.4 12-12 12z" fill="#ff0613"/><linearGradient id="a" gradientUnits="userSpaceOnUse" x1="50" y1="39.164" x2="50" y2="91.89" gradientTransform="matrix(1 0 0 -1 0 99.89)"><stop offset="0" stop-color="#fff" stop-opacity=".1"/><stop offset="1" stop-color="#fff" stop-opacity=".5"/></linearGradient><path d="M8 55.7V20c0-6.6 5.4-12 12-12h60c6.6 0 12 5.4 12 12v17.3C77.3 54.3 8 68.7 8 55.7z" fill="url(#a)"/><path d="M46.9 34.9h-.2l-10.4 4.9-2.1-9.5 14.4-6.7h10.6V78H46.9V34.9z" fill="#fff"/></svg>