<svg xmlns="http://www.w3.org/2000/svg" width="100" height="100"><path d="M20 95c-7.7 0-14-6.3-14-14V21c0-7.7 6.3-14 14-14h60c7.7 0 14 6.3 14 14v60c0 7.7-6.3 14-14 14H20z" opacity=".8"/><path d="M80 92H20c-6.6 0-12-5.4-12-12V20c0-6.6 5.4-12 12-12h60c6.6 0 12 5.4 12 12v60c0 6.6-5.4 12-12 12z" fill="#f0f0f0"/><path d="M30.7 78.1v-7.7l7-6.4c11.9-10.6 17.7-16.8 17.8-23.1 0-4.4-2.7-8-9-8-4.7 0-8.8 2.3-11.6 4.5l-3.6-9.1c4.1-3.1 10.5-5.6 17.8-5.6 12.3 0 19.1 7.2 19.1 17.1 0 9.1-6.6 16.4-14.5 23.5l-5 4.2v.2h20.5v10.5l-38.5-.1z"/><linearGradient id="a" gradientUnits="userSpaceOnUse" x1="50" y1="802.726" x2="50" y2="750" gradientTransform="translate(0 -742)"><stop offset="0" stop-color="#fff" stop-opacity=".1"/><stop offset="1" stop-color="#fff" stop-opacity=".5"/></linearGradient><path d="M8 55.7V20c0-6.6 5.4-12 12-12h60c6.6 0 12 5.4 12 12v17.3C77.3 54.3 8 68.7 8 55.7z" fill="url(#a)"/></svg>