<svg xmlns="http://www.w3.org/2000/svg" width="100" height="100"><path d="M20 95c-7.7 0-14-6.3-14-14V21c0-7.7 6.3-14 14-14h60c7.7 0 14 6.3 14 14v60c0 7.7-6.3 14-14 14H20z" opacity=".8"/><path d="M80 92H20c-6.6 0-12-5.4-12-12V20c0-6.6 5.4-12 12-12h60c6.6 0 12 5.4 12 12v60c0 6.6-5.4 12-12 12z" fill="#312783"/><linearGradient id="a" gradientUnits="userSpaceOnUse" x1="50" y1="39.164" x2="50" y2="91.89" gradientTransform="matrix(1 0 0 -1 0 99.89)"><stop offset="0" stop-color="#fff" stop-opacity=".1"/><stop offset="1" stop-color="#fff" stop-opacity=".5"/></linearGradient><path d="M8 55.7V20c0-6.6 5.4-12 12-12h60c6.6 0 12 5.4 12 12v17.3C77.3 54.3 8 68.7 8 55.7z" fill="url(#a)"/><path d="M33 65.6c2.3 1.2 7.5 3.4 12.6 3.4 6.6 0 10-3.2 10-7.3 0-5.4-5.4-7.8-11-7.8h-5.2v-9.1h4.9c4.3-.1 9.7-1.7 9.7-6.3 0-3.3-2.7-5.7-8-5.7-4.4 0-9.1 1.9-11.4 3.3L32 26.8c3.3-2.1 9.8-4.1 16.8-4.1 11.6 0 18.1 6.1 18.1 13.6 0 5.8-3.3 10.3-10 12.6v.2c6.5 1.2 11.8 6.1 11.8 13.2 0 9.6-8.5 16.7-22.3 16.7-7 0-13-1.8-16.2-3.9l2.8-9.5z" fill="#fff"/></svg>