<svg xmlns="http://www.w3.org/2000/svg" width="100" height="100"><path d="M20 95c-7.7 0-14-6.3-14-14V21c0-7.7 6.3-14 14-14h60c7.7 0 14 6.3 14 14v60c0 7.7-6.3 14-14 14H20z" opacity=".8"/><path d="M80 92H20c-6.6 0-12-5.4-12-12V20c0-6.6 5.4-12 12-12h60c6.6 0 12 5.4 12 12v60c0 6.6-5.4 12-12 12z" fill="#fcbc00"/><path d="M53.2 78.1v-13H29.1v-8.3l20.6-33.2h15.6v31.9h6.5V65h-6.5v13l-12.1.1h0zm0-22.6v-12c0-3.3.2-6.6.4-10.1h-.3c-1.8 3.5-3.2 6.7-5 10.1L41 55.4v.2h12.2v-.1z" fill="none" stroke="#000" stroke-width="6" stroke-miterlimit="10"/><path d="M53.2 78.1v-13H29.1v-8.3l20.6-33.2h15.6v31.9h6.5V65h-6.5v13l-12.1.1zm0-22.6v-12c0-3.3.2-6.6.4-10.1h-.3c-1.8 3.5-3.2 6.7-5 10.1L41 55.4v.2h12.2v-.1z" fill="#fff"/><linearGradient id="a" gradientUnits="userSpaceOnUse" x1="50" y1="-702.836" x2="50" y2="-650.11" gradientTransform="matrix(1 0 0 -1 0 -642.11)"><stop offset="0" stop-color="#fff" stop-opacity=".1"/><stop offset="1" stop-color="#fff" stop-opacity=".5"/></linearGradient><path d="M8 55.7V20c0-6.6 5.4-12 12-12h60c6.6 0 12 5.4 12 12v17.3C77.3 54.3 8 68.7 8 55.7z" fill="url(#a)"/></svg>