<svg xmlns="http://www.w3.org/2000/svg" width="100" height="100"><path d="M20 95c-7.7 0-14-6.3-14-14V21c0-7.7 6.3-14 14-14h60c7.7 0 14 6.3 14 14v60c0 7.7-6.3 14-14 14H20z" opacity=".8"/><path d="M80 92H20c-6.6 0-12-5.4-12-12V20c0-6.6 5.4-12 12-12h60c6.6 0 12 5.4 12 12v60c0 6.6-5.4 12-12 12z" fill="#035c01"/><linearGradient id="a" gradientUnits="userSpaceOnUse" x1="50" y1="39.164" x2="50" y2="91.89" gradientTransform="matrix(1 0 0 -1 0 99.89)"><stop offset="0" stop-color="#fff" stop-opacity=".1"/><stop offset="1" stop-color="#fff" stop-opacity=".5"/></linearGradient><path d="M8 55.7V20c0-6.6 5.4-12 12-12h60c6.6 0 12 5.4 12 12v17.3C77.3 54.3 8 68.7 8 55.7z" fill="url(#a)"/><path d="M67 34.1H45.9l-1.2 8.4c1.2-.2 2.2-.2 3.5-.2 5.2 0 10.5 1.2 14.3 3.9 4.1 2.8 6.6 7.3 6.6 13.7C69.2 70 60.5 79 45.9 79c-6.6 0-12.1-1.5-15.2-3.1l2.3-9.5c2.4 1.2 7.4 2.7 12.3 2.7 5.3 0 10.9-2.5 10.9-8.3 0-5.6-4.4-9-15.3-9-3 0-5.1.2-7.4.5l3.6-28.6h30L67 34.1z" fill="#fff"/></svg>