<svg xmlns="http://www.w3.org/2000/svg" width="100" height="100"><path d="M20 95c-7.7 0-14-6.3-14-14V21c0-7.7 6.3-14 14-14h60c7.7 0 14 6.3 14 14v60c0 7.7-6.3 14-14 14H20z" opacity=".8"/><path d="M80 92H20c-6.6 0-12-5.4-12-12V20c0-6.6 5.4-12 12-12h60c6.6 0 12 5.4 12 12v60c0 6.6-5.4 12-12 12z" fill="#282828"/><linearGradient id="a" gradientUnits="userSpaceOnUse" x1="50" y1="802.726" x2="50" y2="750" gradientTransform="translate(0 -742)"><stop offset="0" stop-color="#fff" stop-opacity=".1"/><stop offset="1" stop-color="#fff" stop-opacity=".5"/></linearGradient><path d="M8 55.7V20c0-6.6 5.4-12 12-12h60c6.6 0 12 5.4 12 12v17.3C77.3 54.3 8 68.7 8 55.7z" fill="url(#a)"/><path d="M51.3 80.5c-14 0-23.1-9.9-23.1-25.3 0-10.1 3.7-19.3 10.1-25.3 5.7-5.2 13.1-8 22-8.4 1.3-.1 2.4-.1 3.4-.1.7 0 1.3 0 1.8.1l1.4.1v12.8l-1.6-.1h-1.1c-.9 0-2 .1-3.6.2-8.3.7-12.6 4-14.7 7.6 2.5-1.2 5.4-1.9 8.7-1.9 10.8 0 18.3 7.9 18.3 19.3 0 11.9-9.3 21-21.6 21zm-.9-28.4c-2.7 0-5.1 1.6-6.2 4-.2.4-.4 1.1-.4 2.6.2 4.5 2.2 9.5 7.3 9.5 4.1 0 5.9-4.1 5.9-8.1 0-3.9-1.7-8-6.6-8z" fill="#fff"/></svg>