<svg xmlns="http://www.w3.org/2000/svg" width="100" height="100"><path d="M20 95c-7.7 0-14-6.3-14-14V21c0-7.7 6.3-14 14-14h60c7.7 0 14 6.3 14 14v60c0 7.7-6.3 14-14 14H20z" opacity=".8"/><path d="M80 92H20c-6.6 0-12-5.4-12-12V20c0-6.6 5.4-12 12-12h60c6.6 0 12 5.4 12 12v60c0 6.6-5.4 12-12 12z" fill="#821b81"/><path d="M29.9 64.2c0-6.3 3.6-10.6 9.3-13.1v-.2c-5.1-2.6-7.6-6.9-7.6-11.4 0-8.9 8-14.7 18.5-14.7 12.3 0 17.3 7.1 17.3 13.5 0 4.5-2.4 8.9-7.6 11.5v.2c5.1 1.9 9.6 6.3 9.6 13.1 0 9.5-8 15.9-20.1 15.9-13.3-.2-19.4-7.7-19.4-14.8zm27.1-.4c0-4.6-3.4-7.3-8.2-8.6-4 1.1-6.4 4-6.4 7.8-.1 3.8 2.8 7.3 7.4 7.3 4.4.1 7.2-2.8 7.2-6.5zM43.2 39c0 3.5 3.2 5.8 7.4 7.1 2.8-.8 5.3-3.4 5.3-6.7 0-3.2-1.9-6.4-6.4-6.4-4.1 0-6.3 2.7-6.3 6z" fill="#fff"/><linearGradient id="a" gradientUnits="userSpaceOnUse" x1="50" y1="802.726" x2="50" y2="750" gradientTransform="translate(0 -742)"><stop offset="0" stop-color="#fff" stop-opacity=".1"/><stop offset="1" stop-color="#fff" stop-opacity=".5"/></linearGradient><path d="M8 55.7V20c0-6.6 5.4-12 12-12h60c6.6 0 12 5.4 12 12v17.3C77.3 54.3 8 68.7 8 55.7z" fill="url(#a)"/></svg>