<svg fill="none" height="24" viewBox="0 0 24 24" width="24" xmlns="http://www.w3.org/2000/svg" xmlns:xlink="http://www.w3.org/1999/xlink"><filter id="a" color-interpolation-filters="sRGB" filterUnits="userSpaceOnUse" height="29.3695" width="29.3383" x="0" y="0"><feFlood flood-opacity="0" result="BackgroundImageFix"/><feColorMatrix in="SourceAlpha" result="hardAlpha" type="matrix" values="0 0 0 0 0 0 0 0 0 0 0 0 0 0 0 0 0 0 127 0"/><feOffset/><feGaussianBlur stdDeviation="2"/><feColorMatrix type="matrix" values="0 0 0 0 0 0 0 0 0 0 0 0 0 0 0 0 0 0 0.24 0"/><feBlend in2="BackgroundImageFix" mode="normal" result="effect1_dropShadow_432:1499"/><feBlend in="SourceGraphic" in2="effect1_dropShadow_432:1499" mode="normal" result="shape"/></filter><radialGradient id="b" cx="0" cy="0" gradientTransform="matrix(-21.33827623 -22.19467374 22.17751685 -21.32178135 25.3383 26.1947)" gradientUnits="userSpaceOnUse" r="1"><stop offset="0" stop-color="#aebacb"/><stop offset="1" stop-color="#2a3b54"/></radialGradient><radialGradient id="c" cx="0" cy="0" gradientTransform="matrix(7.33503471 10.05696281 -9.99951846 7.29313774 10.5015 7.29452)" gradientUnits="userSpaceOnUse" r="1"><stop offset="0" stop-color="#fff" stop-opacity=".8"/><stop offset="1" stop-color="#fff" stop-opacity="0"/></radialGradient><g filter="url(#a)"><path d="m20.3427 16.6317.5168-1.5344-6.5829-2.3559 6.5829 6.8779-5.1711 5.1652c-.7802.7793-2.044.7801-2.8252.0017l-8.8632-8.8325c.32114-1.0348.74934-2.0339 1.2489-2.9617 1.21321-2.1052 2.99735-3.88937 5.1026-5.10258 1.1776-.67797 2.4978-1.21321 3.8894-1.49868v-2.39074l11.0974 11.0973-2.4621 2.4621z" fill="url(#b)"/><path d="m20.3427 16.6317.5168-1.5344-6.5829-2.3559 6.5829 6.8779-5.1711 5.1652c-.7802.7793-2.044.7801-2.8252.0017l-8.8632-8.8325c.32114-1.0348.74934-2.0339 1.2489-2.9617 1.21321-2.1052 2.99735-3.88937 5.1026-5.10258 1.1776-.67797 2.4978-1.21321 3.8894-1.49868v-2.39074l11.0974 11.0973-2.4621 2.4621z" fill="url(#c)" fill-opacity=".5"/></g></svg>
