<svg width="24" height="24" viewBox="0 0 24 24" fill="none" xmlns="http://www.w3.org/2000/svg">
<path d="M16.5972 20.1623C16.6967 20.1112 16.7849 20.0405 16.8565 19.9546C16.9281 19.8686 16.9817 19.7692 17.0141 19.6621V19.6537C17.0462 19.5459 17.0554 19.4326 17.041 19.321C17.0267 19.2094 16.9891 19.1021 16.9307 19.0059L14.4212 14.654C14.366 14.5598 14.276 14.491 14.1706 14.4625C14.0652 14.434 13.9529 14.4479 13.8577 14.5014C13.294 14.8294 12.6533 15.0019 12.0011 15.001C11.349 15.0001 10.7087 14.826 10.146 14.4964C10.0985 14.4681 10.046 14.4495 9.99132 14.4417C9.93666 14.4339 9.88099 14.437 9.82755 14.4509C9.7741 14.4648 9.72395 14.4891 9.68 14.5226C9.63605 14.556 9.59919 14.5978 9.57154 14.6456L7.0704 18.9909C7.00931 19.0895 6.96984 19.2 6.95461 19.3149C6.93938 19.4299 6.94872 19.5468 6.98202 19.6579C7.01439 19.765 7.06798 19.8645 7.1396 19.9504C7.21121 20.0363 7.29939 20.107 7.39888 20.1581C8.82036 20.8947 10.3979 21.2791 11.9989 21.2791C13.5999 21.2791 15.1774 20.8947 16.5989 20.1581L16.5972 20.1623Z" fill="#F0F8FF"/>
<path d="M17.4004 2.85938C17.3057 2.79755 17.1995 2.75561 17.0881 2.73612C16.9767 2.71663 16.8626 2.71999 16.7526 2.746C16.6413 2.7726 16.5366 2.82158 16.4449 2.88995C16.3531 2.95832 16.2763 3.04465 16.219 3.14368L13.7095 7.49566C13.6544 7.59123 13.6395 7.70473 13.6679 7.81131C13.6963 7.91788 13.7659 8.00884 13.8612 8.06425C14.4233 8.39414 14.8906 8.86357 15.2179 9.42708C15.5452 9.99059 15.7215 10.6291 15.7296 11.2807C15.7296 11.4066 15.7221 11.5258 15.7138 11.6734C15.7105 11.7301 15.7188 11.787 15.7383 11.8404C15.7577 11.8938 15.7879 11.9426 15.827 11.9839C15.866 12.0252 15.9131 12.0581 15.9653 12.0806C16.0175 12.103 16.0738 12.1145 16.1306 12.1144H21.1662C21.2803 12.1131 21.3931 12.0892 21.4978 12.044C21.6026 11.9987 21.6973 11.9331 21.7765 11.851C21.9194 11.6901 21.9989 11.4826 21.9999 11.2674V11.249C21.9302 9.59106 21.4788 7.97153 20.6811 6.51642C19.8833 5.06131 18.7606 3.80985 17.4004 2.85938Z" fill="#F0F8FF"/>
<path d="M7.78321 3.13854C7.72526 3.04023 7.64793 2.95473 7.55591 2.88723C7.4639 2.81972 7.35913 2.77163 7.24796 2.74586C7.13788 2.71944 7.02353 2.71603 6.91207 2.73582C6.8006 2.75562 6.69442 2.7982 6.60017 2.86091C5.2396 3.81316 4.11706 5.06646 3.31988 6.52331C2.5227 7.98016 2.07236 9.60128 2.00391 11.2606C2.0055 11.4846 2.09085 11.6999 2.24318 11.8642C2.4008 12.0224 2.61432 12.1122 2.83762 12.1143H7.87325C7.93062 12.1122 7.98699 12.0986 8.03898 12.0742C8.09098 12.0499 8.13754 12.0153 8.17589 11.9726C8.21473 11.9291 8.2446 11.8783 8.26377 11.8232C8.28295 11.7681 8.29104 11.7098 8.2876 11.6516C8.28093 11.5257 8.27343 11.4065 8.27343 11.2806C8.28097 10.6284 8.45696 9.9892 8.78431 9.42506C9.11167 8.86091 9.57928 8.39095 10.1418 8.06078C10.2372 8.00536 10.3067 7.91441 10.3351 7.80783C10.3636 7.70126 10.3486 7.58775 10.2935 7.49219L7.78321 3.13854Z" fill="#F0F8FF"/>
<path d="M12.0003 13.3614C13.1514 13.3614 14.0846 12.4283 14.0846 11.2772C14.0846 10.126 13.1514 9.19287 12.0003 9.19287C10.8492 9.19287 9.91602 10.126 9.91602 11.2772C9.91602 12.4283 10.8492 13.3614 12.0003 13.3614Z" fill="#F0F8FF"/>
</svg>
