<?xml version="1.0" encoding="utf-8"?>
<!-- Generator: Adobe Illustrator 24.0.0, SVG Export Plug-In . SVG Version: 6.00 Build 0)  -->
<svg version="1.1" id="Capa_1" xmlns="http://www.w3.org/2000/svg" xmlns:xlink="http://www.w3.org/1999/xlink" x="0px" y="0px"
	 viewBox="0 0 2500 2500" style="enable-background:new 0 0 2500 2500;" xml:space="preserve">
<style type="text/css">
	.st0{fill:#8247E5;}
	.st1{clip-path:url(#SVGID_2_);}
	.st2{fill:#FFFFFF;}
</style>
<path class="st0" d="M1249.5,6.9L1249.5,6.9c686.9,0,1243.6,556.6,1243.6,1243.3l0,0c0,686.7-556.7,1242.9-1243.1,1242.9l0,0
	C563.1,2493.1,6.9,1936.5,6.9,1250.2l0,0C6.4,563.5,563.1,6.9,1249.5,6.9z"/>
<g>
	<g>
		<g>
			<defs>
				<rect id="SVGID_1_" x="430.7" y="532.2" width="1638.6" height="1435.7"/>
			</defs>
			<clipPath id="SVGID_2_">
				<use xlink:href="#SVGID_1_"  style="overflow:visible;"/>
			</clipPath>
			<g class="st1">
				<path class="st2" d="M1668.4,969.5c-30-17.2-68.4-17.2-102.3,0L1327,1111.1l-162.3,90L930,1342.2c-30,17.2-68.4,17.2-102.3,0
					l-183.5-111.6c-30-17.2-51.2-51.6-51.2-90V926.2c0-34.4,17.2-68.4,51.2-90L827.7,729c30-17.2,68.4-17.2,102.3,0l183.5,111.6
					c30,17.2,51.2,51.6,51.2,90v141.6l162.3-94.4V832.2c0-34.4-17.2-68.4-51.2-90L934.4,540.6c-30-17.2-68.4-17.2-102.3,0
					L482.3,746.7c-33.9,17.2-51.2,51.6-51.2,85.6V1235c0,34.4,17.2,68.4,51.2,90l345.9,201.6c30,17.2,68.4,17.2,102.3,0l234.7-137.2
					l162.3-94.4l234.7-137.2c30-17.2,68.4-17.2,102.3,0l183.5,107.2c30,17.2,51.2,51.6,51.2,90v214.4c0,34.4-17.2,68.4-51.2,90
					l-179.1,107.2c-30,17.2-68.4,17.2-102.3,0l-184-107.2c-30-17.2-51.2-51.6-51.2-90v-137.2l-162.3,94.4v141.6
					c0,34.4,17.2,68.4,51.2,90l345.8,201.7c30,17.2,68.4,17.2,102.3,0l345.8-201.7c30-17.2,51.2-51.6,51.2-90V1261
					c0-34.4-17.2-68.4-51.2-90L1668.4,969.5z"/>
			</g>
		</g>
	</g>
</g>
</svg>
