<?xml version="1.0" encoding="utf-8"?>
<!-- Generator: Adobe Illustrator 24.0.0, SVG Export Plug-In . SVG Version: 6.00 Build 0)  -->
<svg version="1.1" id="Capa_1" xmlns="http://www.w3.org/2000/svg" xmlns:xlink="http://www.w3.org/1999/xlink" x="0px" y="0px"
	 viewBox="0 0 2500 2500" style="enable-background:new 0 0 2500 2500;" xml:space="preserve">
<style type="text/css">
	.st0{fill:#6F2ED6;}
	.st1{fill:#FFFFFF;}
</style>
<g>
	<g>
		<g>
			<path id="SVGID_1_" class="st0" d="M1249.9,6.9c687.4,0,1244.6,556.5,1244.6,1243.1s-557.2,1243.1-1244.6,1243.1
				S5.4,1936.5,5.4,1249.9S562.6,6.9,1249.9,6.9L1249.9,6.9z"/>
		</g>
	</g>
	<g>
		<path class="st1" d="M575.7,1037.3L904.5,940v267.1h589.9c65,0,110.2-35.6,135.7-106.8c10.4-29.3,15.6-59.7,15.6-91.5
			c0-77.6-23.8-134.2-71.4-169.8c-24.4-16.5-51-24.8-80-24.8H575.7l88.7-322.4h833.5c170.5,0,302.7,68.1,396.7,204.1
			c66.1,96.7,99.2,206.7,99.2,330c0,147.5-45.2,268.9-135.7,364.3c-47.6,49.6-103.2,85.8-167.1,108.8l342.8,509.3h-388l-301-478.7
			H904.6v478.7h-329V1037.3z"/>
	</g>
</g>
</svg>
