<?xml version="1.0" encoding="utf-8"?>
<!-- Generator: Adobe Illustrator 24.0.0, SVG Export Plug-In . SVG Version: 6.00 Build 0)  -->
<svg version="1.1" id="Capa_1" xmlns="http://www.w3.org/2000/svg" xmlns:xlink="http://www.w3.org/1999/xlink" x="0px" y="0px"
	 viewBox="0 0 2500 2500" style="enable-background:new 0 0 2500 2500;" xml:space="preserve">
<style type="text/css">
	.st0{fill:#53AE94;}
	.st1{fill:#FFFFFF;}
</style>
<path class="st0" d="M1250,6.9c686.1,0,1242.4,556.6,1242.4,1243.1S1936.1,2493.1,1250,2493.1S7.6,1936.6,7.6,1250
	S563.8,6.9,1250,6.9"/>
<path class="st1" d="M1403.3,1031.7v-185h422.9V564.8H674.7v281.9h422.9v184.9c-343.7,15.8-602.1,83.9-602.1,165.5
	s258.6,149.7,602.1,165.6v592.6h305.8v-592.7c343.1-15.8,601-83.9,601-165.4C2004.4,1115.6,1746.5,1047.6,1403.3,1031.7
	 M1403.4,1312.4L1403.4,1312.4c-8.6,0.4-53,3.1-151.7,3.1c-78.9,0-134.4-2.2-154-3.3v0.2c-303.7-13.5-530.3-66.4-530.3-129.7
	c0-63.3,226.7-116.1,530.3-129.6v206.6c19.9,1.4,76.8,4.7,155.3,4.7c94.3,0,141.7-3.9,150.4-4.7v-206.6
	c303.1,13.5,529.2,66.5,529.2,129.5c0,63.1-226.2,116.1-529.2,129.6"/>
</svg>
